<?xml version="1.0" standalone="no"?>
<!DOCTYPE svg PUBLIC "-//W3C//DTD SVG 20010904//EN"
 "http://www.w3.org/TR/2001/REC-SVG-20010904/DTD/svg10.dtd">
<svg version="1.0" xmlns="http://www.w3.org/2000/svg"
 width="973.000000pt" height="1280.000000pt" viewBox="0 0 973.000000 1280.000000"
 preserveAspectRatio="xMidYMid meet">
<metadata>
Created by potrace 1.15, written by Peter Selinger 2001-2017
</metadata>
<g transform="translate(0.000000,1280.000000) scale(0.100000,-0.100000)"
fill="#ffffff" stroke="none">
<path d="M1710 6365 l0 -4755 284 0 c194 0 287 3 292 11 4 7 26 8 63 4 l56 -6
63 56 c34 32 76 77 93 102 28 40 30 50 24 90 l-7 46 39 -7 c25 -5 49 -19 71
-42 30 -32 38 -35 80 -32 43 3 49 6 67 40 18 34 24 38 58 38 58 0 62 18 50
217 -6 93 -17 191 -24 220 -11 43 -10 65 1 125 10 56 14 226 16 744 1 369 7
1458 13 2420 7 962 13 1893 14 2070 2 363 2 360 70 349 l39 -7 -8 33 c-4 19
-7 44 -7 57 2 51 92 111 167 112 35 0 38 -2 32 -24 -8 -31 15 -50 49 -42 21 5
25 12 25 45 0 34 -3 39 -29 44 -26 6 -29 11 -35 60 -4 30 -3 65 3 81 13 33 72
60 116 53 l31 -5 -4 53 c-4 47 -1 57 20 78 16 16 46 29 84 37 95 20 201 63
313 128 148 87 194 91 188 18 -1 -22 2 -30 12 -28 8 2 27 -2 44 -8 45 -15 58
1 55 69 l-4 56 -44 5 c-71 8 -68 35 26 243 30 65 68 159 86 208 41 119 65 154
104 153 16 0 36 -4 45 -8 13 -6 15 1 15 40 -1 26 4 49 10 51 6 2 26 -19 43
-46 54 -83 150 -165 249 -212 48 -22 115 -54 149 -70 66 -32 149 -113 182
-178 28 -54 45 -183 31 -226 -18 -53 -40 -60 -99 -31 -41 21 -61 41 -61 62 0
2 11 -1 24 -6 23 -8 27 -5 55 53 17 33 28 63 26 66 -3 2 -25 -4 -49 -13 -36
-14 -53 -30 -86 -78 -22 -33 -40 -68 -40 -78 0 -33 44 -85 85 -98 86 -28 130
5 202 155 54 111 56 115 51 183 -7 90 -37 142 -118 201 -34 24 -69 50 -78 57
-15 11 -13 16 24 50 23 20 79 57 125 82 73 40 87 52 107 92 l24 47 -40 88
c-51 114 -54 127 -23 131 32 5 76 -40 96 -96 20 -60 19 -80 -5 -127 -11 -22
-20 -45 -20 -52 0 -27 31 -11 55 28 32 50 75 69 155 69 84 0 100 -17 100 -107
l0 -67 28 27 c33 32 81 36 105 9 22 -24 33 -55 61 -180 25 -115 65 -213 116
-288 17 -25 36 -66 42 -90 16 -57 4 -79 -42 -79 -26 0 -34 -5 -37 -20 -1 -11
-6 -36 -9 -56 l-6 -36 47 -7 c59 -9 75 3 75 59 0 47 9 55 61 55 22 0 43 -13
78 -45 82 -76 208 -123 385 -141 46 -4 64 -11 83 -32 22 -24 24 -34 21 -92
l-3 -65 54 0 c65 0 69 -7 70 -115 1 -81 -7 -104 -31 -95 -20 8 -32 -11 -33
-50 0 -24 6 -33 29 -43 33 -14 37 -13 39 19 2 34 13 39 89 39 57 0 71 -3 89
-22 30 -32 39 -61 32 -102 -5 -29 -3 -36 11 -36 10 0 26 4 36 10 45 24 45 21
49 -734 4 -743 -12 -2733 -31 -3981 -6 -401 -10 -764 -9 -805 2 -41 -3 -189
-10 -328 -14 -291 -12 -302 48 -302 34 0 40 -4 58 -38 18 -34 24 -37 67 -40
42 -3 50 0 80 32 22 23 46 37 71 42 l39 7 -7 -46 c-6 -40 -4 -50 24 -90 17
-25 60 -72 96 -105 l66 -59 46 10 c33 8 50 8 64 -1 13 -9 98 -12 289 -12 l270
0 0 4755 0 4755 -3210 0 -3210 0 0 -4755z"/>
</g>
</svg>
