<?xml version="1.0" encoding="UTF-8" standalone="no"?>
<!-- Created with Inkscape (http://www.inkscape.org/) -->

<svg
   xmlns:dc="http://purl.org/dc/elements/1.1/"
   xmlns:cc="http://creativecommons.org/ns#"
   xmlns:rdf="http://www.w3.org/1999/02/22-rdf-syntax-ns#"
   xmlns:svg="http://www.w3.org/2000/svg"
   xmlns="http://www.w3.org/2000/svg"
   xmlns:sodipodi="http://sodipodi.sourceforge.net/DTD/sodipodi-0.dtd"
   xmlns:inkscape="http://www.inkscape.org/namespaces/inkscape"
   version="1.1"
   id="svg815"
   xml:space="preserve"
   width="880"
   height="880"
   viewBox="0 0 880 880"
   sodipodi:docname="old-keys-silhouette-freesvg.org.svg"
   inkscape:version="0.92.4 (5da689c313, 2019-01-14)"><metadata
     id="metadata821"><rdf:RDF><cc:Work
         rdf:about=""><dc:format>image/svg+xml</dc:format><dc:type
           rdf:resource="http://purl.org/dc/dcmitype/StillImage" /><dc:title></dc:title></cc:Work></rdf:RDF></metadata><defs
     id="defs819"><clipPath
       clipPathUnits="userSpaceOnUse"
       id="clipPath831"><path
         d="M 0,660 H 660 V 0 H 0 Z"
         id="path829"
         inkscape:connector-curvature="0" /></clipPath></defs><sodipodi:namedview
     pagecolor="#ffffff"
     bordercolor="#666666"
     borderopacity="1"
     objecttolerance="10"
     gridtolerance="10"
     guidetolerance="10"
     inkscape:pageopacity="0"
     inkscape:pageshadow="2"
     inkscape:window-width="1920"
     inkscape:window-height="1018"
     id="namedview817"
     showgrid="false"
     inkscape:zoom="0.96477273"
     inkscape:cx="440"
     inkscape:cy="452.62844"
     inkscape:window-x="-8"
     inkscape:window-y="-8"
     inkscape:window-maximized="1"
     inkscape:current-layer="g823" /><g
     id="g823"
     inkscape:groupmode="layer"
     inkscape:label="old-keys-silhouette-freesvg.org"
     transform="matrix(1.3333333,0,0,-1.3333333,0,880)"><g
       id="g1068"><path
         inkscape:connector-curvature="0"
         id="path833"
         style="fill:#231f20;fill-opacity:1;fill-rule:nonzero;stroke:none"
         d="m 31.141,-25.146 h 3.677 c 1.135,0 2.026,0.106 2.672,0.318 0.646,0.212 1.161,0.51 1.545,0.893 0.54,0.541 0.961,1.269 1.262,2.182 0.302,0.914 0.453,2.022 0.453,3.322 0,1.804 -0.295,3.19 -0.887,4.159 -0.591,0.967 -1.31,1.617 -2.155,1.946 -0.612,0.235 -1.594,0.352 -2.949,0.352 h -3.618 z m -2.282,-2.031 v 17.235 h 5.932 c 1.338,0 2.36,-0.082 3.065,-0.247 0.986,-0.228 1.828,-0.639 2.525,-1.235 0.908,-0.767 1.587,-1.749 2.037,-2.944 0.451,-1.195 0.676,-2.562 0.676,-4.098 0,-1.308 -0.153,-2.469 -0.458,-3.479 -0.305,-1.011 -0.697,-1.848 -1.175,-2.51 -0.477,-0.663 -1,-1.184 -1.568,-1.564 -0.567,-0.38 -1.252,-0.668 -2.055,-0.864 -0.802,-0.196 -1.724,-0.294 -2.766,-0.294 z" /><path
         inkscape:connector-curvature="0"
         id="path835"
         style="fill:#231f20;fill-opacity:1;fill-rule:nonzero;stroke:none"
         d="m 47.546,-19.739 h 6.969 c -0.094,1.052 -0.36,1.842 -0.799,2.368 -0.674,0.817 -1.548,1.225 -2.621,1.225 -0.971,0 -1.788,-0.326 -2.45,-0.978 -0.662,-0.651 -1.028,-1.523 -1.099,-2.615 m 6.946,-3.407 2.187,-0.281 c -0.345,-1.277 -0.983,-2.268 -1.915,-2.973 -0.931,-0.705 -2.122,-1.058 -3.571,-1.058 -1.824,0 -3.272,0.562 -4.34,1.687 -1.069,1.124 -1.603,2.701 -1.603,4.731 0,2.1 0.54,3.729 1.621,4.889 1.08,1.16 2.482,1.74 4.205,1.74 1.668,0 3.03,-0.568 4.088,-1.704 1.057,-1.136 1.586,-2.735 1.586,-4.794 0,-0.126 -0.004,-0.315 -0.012,-0.565 h -9.317 c 0.079,-1.373 0.467,-2.425 1.165,-3.155 0.698,-0.729 1.569,-1.095 2.612,-1.095 0.776,0 1.439,0.205 1.988,0.616 0.549,0.41 0.984,1.064 1.306,1.962" /><path
         inkscape:connector-curvature="0"
         id="path837"
         style="fill:#231f20;fill-opacity:1;fill-rule:nonzero;stroke:none"
         d="m 58.489,-23.442 2.094,0.328 c 0.118,-0.842 0.445,-1.489 0.983,-1.937 0.538,-0.448 1.289,-0.673 2.254,-0.673 0.973,0 1.695,0.199 2.166,0.595 0.471,0.397 0.706,0.861 0.706,1.396 0,0.479 -0.207,0.855 -0.62,1.13 -0.289,0.189 -1.01,0.428 -2.163,0.719 -1.554,0.392 -2.631,0.731 -3.231,1.016 -0.6,0.286 -1.055,0.681 -1.365,1.187 -0.31,0.505 -0.464,1.063 -0.464,1.674 0,0.557 0.127,1.071 0.382,1.545 0.254,0.475 0.602,0.868 1.04,1.182 0.329,0.242 0.778,0.448 1.347,0.616 0.568,0.169 1.177,0.253 1.828,0.253 0.979,0 1.84,-0.141 2.58,-0.423 0.741,-0.282 1.288,-0.664 1.641,-1.145 0.352,-0.482 0.595,-1.125 0.729,-1.932 l -2.063,-0.281 c -0.094,0.642 -0.367,1.144 -0.818,1.505 -0.451,0.361 -1.089,0.541 -1.912,0.541 -0.974,0 -1.668,-0.161 -2.084,-0.483 -0.416,-0.321 -0.623,-0.698 -0.623,-1.13 0,-0.275 0.086,-0.523 0.259,-0.742 0.172,-0.228 0.443,-0.417 0.811,-0.566 0.212,-0.079 0.836,-0.259 1.872,-0.541 1.498,-0.401 2.543,-0.728 3.133,-0.982 0.59,-0.255 1.053,-0.625 1.389,-1.11 0.336,-0.487 0.504,-1.089 0.504,-1.81 0,-0.705 -0.206,-1.369 -0.617,-1.992 -0.412,-0.622 -1.006,-1.104 -1.783,-1.445 -0.776,-0.341 -1.654,-0.511 -2.634,-0.511 -1.623,0 -2.861,0.338 -3.711,1.013 -0.852,0.674 -1.395,1.675 -1.63,3.003" /><path
         inkscape:connector-curvature="0"
         id="path839"
         style="fill:#231f20;fill-opacity:1;fill-rule:nonzero;stroke:none"
         d="m 71.378,-14.692 h 2.109 v -12.484 h -2.109 z m 0,4.75 h 2.109 v -2.438 h -2.109 z" /><path
         inkscape:connector-curvature="0"
         id="path841"
         style="fill:#231f20;fill-opacity:1;fill-rule:nonzero;stroke:none"
         d="m 78.078,-20.712 c 0,-1.639 0.325,-2.834 0.974,-3.586 0.65,-0.753 1.464,-1.129 2.442,-1.129 0.97,0 1.784,0.374 2.442,1.123 0.657,0.748 0.985,1.922 0.985,3.522 0,1.528 -0.338,2.68 -1.015,3.457 -0.677,0.775 -1.492,1.164 -2.448,1.164 -0.938,0 -1.737,-0.383 -2.394,-1.147 -0.657,-0.764 -0.986,-1.899 -0.986,-3.404 m -1.75,-7.496 2.062,-0.313 c 0.086,-0.632 0.325,-1.093 0.716,-1.382 0.524,-0.391 1.24,-0.586 2.147,-0.586 0.978,0 1.733,0.196 2.265,0.588 0.531,0.392 0.892,0.941 1.079,1.647 0.11,0.432 0.16,1.337 0.153,2.718 -0.924,-1.094 -2.075,-1.641 -3.453,-1.641 -1.715,0 -3.043,0.619 -3.982,1.858 -0.94,1.238 -1.409,2.722 -1.409,4.455 0,1.191 0.216,2.29 0.646,3.297 0.431,1.006 1.056,1.785 1.874,2.333 0.819,0.548 1.78,0.823 2.885,0.823 1.472,0 2.687,-0.594 3.642,-1.781 v 1.5 h 1.953 v -10.789 c 0,-1.944 -0.198,-3.321 -0.593,-4.131 -0.396,-0.811 -1.023,-1.451 -1.881,-1.922 -0.858,-0.47 -1.914,-0.705 -3.168,-0.705 -1.488,0 -2.691,0.335 -3.608,1.005 -0.917,0.67 -1.36,1.678 -1.328,3.026" /><path
         inkscape:connector-curvature="0"
         id="path843"
         style="fill:#231f20;fill-opacity:1;fill-rule:nonzero;stroke:none"
         d="m 90.104,-27.177 v 12.485 h 1.89 v -1.775 c 0.916,1.37 2.24,2.056 3.97,2.056 0.752,0 1.444,-0.135 2.074,-0.405 0.63,-0.271 1.102,-0.625 1.415,-1.065 0.313,-0.438 0.533,-0.96 0.658,-1.563 0.078,-0.392 0.118,-1.077 0.118,-2.057 v -7.676 h -2.11 v 7.598 c 0,0.862 -0.082,1.507 -0.246,1.934 -0.165,0.427 -0.456,0.769 -0.875,1.023 -0.419,0.256 -0.911,0.383 -1.474,0.383 -0.9,0 -1.677,-0.286 -2.331,-0.859 -0.653,-0.572 -0.98,-1.658 -0.98,-3.257 v -6.822 z" /><path
         inkscape:connector-curvature="0"
         id="path845"
         style="fill:#231f20;fill-opacity:1;fill-rule:nonzero;stroke:none"
         d="m 105.062,-19.739 h 6.969 c -0.094,1.052 -0.361,1.842 -0.799,2.368 -0.674,0.817 -1.548,1.225 -2.621,1.225 -0.972,0 -1.788,-0.326 -2.45,-0.978 -0.662,-0.651 -1.029,-1.523 -1.099,-2.615 m 6.945,-3.407 2.188,-0.281 c -0.345,-1.277 -0.984,-2.268 -1.915,-2.973 -0.932,-0.705 -2.122,-1.058 -3.571,-1.058 -1.825,0 -3.272,0.562 -4.34,1.687 -1.07,1.124 -1.604,2.701 -1.604,4.731 0,2.1 0.54,3.729 1.621,4.889 1.081,1.16 2.483,1.74 4.205,1.74 1.668,0 3.031,-0.568 4.088,-1.704 1.057,-1.136 1.586,-2.735 1.586,-4.794 0,-0.126 -0.004,-0.315 -0.012,-0.565 h -9.316 c 0.078,-1.373 0.467,-2.425 1.165,-3.155 0.697,-0.729 1.568,-1.095 2.611,-1.095 0.777,0 1.439,0.205 1.989,0.616 0.548,0.41 0.984,1.064 1.305,1.962" /><path
         inkscape:connector-curvature="0"
         id="path847"
         style="fill:#231f20;fill-opacity:1;fill-rule:nonzero;stroke:none"
         d="m 118.255,-20.948 c 0,-1.6 0.337,-2.795 1.01,-3.588 0.674,-0.791 1.469,-1.188 2.385,-1.188 0.924,0 1.709,0.378 2.355,1.135 0.646,0.757 0.969,1.911 0.969,3.464 0,1.71 -0.329,2.964 -0.987,3.765 -0.657,0.798 -1.468,1.199 -2.431,1.199 -0.94,0 -1.724,-0.385 -2.355,-1.152 -0.63,-0.77 -0.946,-1.981 -0.946,-3.635 m 6.688,-6.229 v 1.571 c -0.791,-1.235 -1.955,-1.852 -3.49,-1.852 -0.995,0 -1.91,0.274 -2.744,0.822 -0.834,0.549 -1.48,1.315 -1.938,2.299 -0.458,0.983 -0.688,2.113 -0.688,3.391 0,1.246 0.208,2.376 0.624,3.39 0.415,1.015 1.037,1.793 1.868,2.334 0.83,0.54 1.758,0.811 2.784,0.811 0.752,0 1.422,-0.158 2.01,-0.476 0.587,-0.317 1.065,-0.73 1.433,-1.239 v 6.184 h 2.11 v -17.235 z" /><path
         inkscape:connector-curvature="0"
         id="path849"
         style="fill:#231f20;fill-opacity:1;fill-rule:nonzero;stroke:none"
         d="m 144.882,-20.911 c -0.767,-0.314 -1.918,-0.58 -3.451,-0.799 -0.869,-0.126 -1.484,-0.268 -1.844,-0.424 -0.36,-0.156 -0.637,-0.386 -0.833,-0.687 -0.196,-0.302 -0.294,-0.637 -0.294,-1.006 0,-0.565 0.213,-1.034 0.639,-1.41 0.426,-0.377 1.049,-0.565 1.869,-0.565 0.813,0 1.535,0.178 2.168,0.535 0.633,0.357 1.098,0.844 1.395,1.463 0.226,0.479 0.34,1.184 0.34,2.117 z m 0.172,-4.719 c -0.786,-0.668 -1.541,-1.141 -2.263,-1.415 -0.723,-0.275 -1.499,-0.413 -2.327,-0.413 -1.367,0 -2.418,0.335 -3.152,1.005 -0.734,0.67 -1.102,1.526 -1.102,2.567 0,0.612 0.139,1.17 0.416,1.675 0.278,0.506 0.641,0.911 1.09,1.217 0.45,0.306 0.955,0.536 1.518,0.693 0.414,0.11 1.039,0.216 1.875,0.318 1.703,0.203 2.957,0.446 3.762,0.728 0.007,0.29 0.011,0.475 0.011,0.553 0,0.863 -0.199,1.471 -0.598,1.823 -0.539,0.479 -1.341,0.718 -2.404,0.718 -0.992,0 -1.725,-0.175 -2.198,-0.524 -0.474,-0.348 -0.823,-0.965 -1.05,-1.851 l -2.062,0.281 c 0.188,0.886 0.497,1.601 0.928,2.146 0.43,0.544 1.052,0.963 1.867,1.256 0.814,0.295 1.758,0.442 2.831,0.442 1.064,0 1.929,-0.125 2.596,-0.376 0.665,-0.251 1.154,-0.567 1.467,-0.946 0.314,-0.38 0.533,-0.861 0.658,-1.44 0.071,-0.361 0.106,-1.012 0.106,-1.951 v -2.822 c 0,-1.967 0.045,-3.211 0.136,-3.733 0.09,-0.52 0.268,-1.019 0.536,-1.498 h -2.203 c -0.227,0.442 -0.373,0.957 -0.438,1.547" /><path
         inkscape:connector-curvature="0"
         id="path851"
         style="fill:#231f20;fill-opacity:1;fill-rule:nonzero;stroke:none"
         d="m 150.31,-27.177 v 12.485 h 1.89 v -1.775 c 0.916,1.37 2.24,2.056 3.97,2.056 0.752,0 1.444,-0.135 2.074,-0.405 0.631,-0.271 1.102,-0.625 1.415,-1.065 0.313,-0.438 0.533,-0.96 0.658,-1.563 0.078,-0.392 0.118,-1.077 0.118,-2.057 v -7.676 h -2.11 v 7.598 c 0,0.862 -0.082,1.507 -0.246,1.934 -0.165,0.427 -0.456,0.769 -0.875,1.023 -0.419,0.256 -0.911,0.383 -1.474,0.383 -0.9,0 -1.677,-0.286 -2.331,-0.859 -0.653,-0.572 -0.98,-1.658 -0.98,-3.257 v -6.822 z" /><path
         inkscape:connector-curvature="0"
         id="path853"
         style="fill:#231f20;fill-opacity:1;fill-rule:nonzero;stroke:none"
         d="m 165.081,-20.948 c 0,-1.6 0.336,-2.795 1.009,-3.588 0.674,-0.791 1.469,-1.188 2.385,-1.188 0.924,0 1.709,0.378 2.356,1.135 0.645,0.757 0.968,1.911 0.968,3.464 0,1.71 -0.329,2.964 -0.986,3.765 -0.658,0.798 -1.469,1.199 -2.432,1.199 -0.94,0 -1.724,-0.385 -2.355,-1.152 -0.63,-0.77 -0.945,-1.981 -0.945,-3.635 m 6.687,-6.229 v 1.571 c -0.791,-1.235 -1.955,-1.852 -3.49,-1.852 -0.994,0 -1.909,0.274 -2.743,0.822 -0.834,0.549 -1.481,1.315 -1.939,2.299 -0.458,0.983 -0.687,2.113 -0.687,3.391 0,1.246 0.207,2.376 0.623,3.39 0.415,1.015 1.037,1.793 1.868,2.334 0.83,0.54 1.758,0.811 2.785,0.811 0.752,0 1.421,-0.158 2.009,-0.476 0.587,-0.317 1.065,-0.73 1.433,-1.239 v 6.184 h 2.11 v -17.235 z" /><path
         inkscape:connector-curvature="0"
         id="path855"
         style="fill:#231f20;fill-opacity:1;fill-rule:nonzero;stroke:none"
         d="m 183.724,-27.177 v 12.485 h 1.89 v -1.895 c 0.487,0.886 0.937,1.471 1.349,1.752 0.413,0.283 0.867,0.424 1.362,0.424 0.715,0 1.441,-0.228 2.18,-0.682 l -0.74,-1.957 c -0.516,0.301 -1.033,0.451 -1.549,0.451 -0.461,0 -0.876,-0.138 -1.243,-0.417 -0.368,-0.278 -0.63,-0.664 -0.787,-1.158 -0.235,-0.752 -0.353,-1.575 -0.353,-2.468 v -6.535 z" /><path
         inkscape:connector-curvature="0"
         id="path857"
         style="fill:#231f20;fill-opacity:1;fill-rule:nonzero;stroke:none"
         d="m 193.345,-19.739 h 6.968 c -0.094,1.052 -0.36,1.842 -0.799,2.368 -0.674,0.817 -1.547,1.225 -2.62,1.225 -0.972,0 -1.789,-0.326 -2.451,-0.978 -0.662,-0.651 -1.028,-1.523 -1.098,-2.615 m 6.945,-3.407 2.187,-0.281 c -0.345,-1.277 -0.982,-2.268 -1.914,-2.973 -0.933,-0.705 -2.123,-1.058 -3.571,-1.058 -1.825,0 -3.272,0.562 -4.341,1.687 -1.068,1.124 -1.603,2.701 -1.603,4.731 0,2.1 0.54,3.729 1.621,4.889 1.081,1.16 2.482,1.74 4.206,1.74 1.667,0 3.03,-0.568 4.087,-1.704 1.057,-1.136 1.586,-2.735 1.586,-4.794 0,-0.126 -0.004,-0.315 -0.012,-0.565 h -9.316 c 0.078,-1.373 0.466,-2.425 1.164,-3.155 0.699,-0.729 1.569,-1.095 2.612,-1.095 0.776,0 1.439,0.205 1.988,0.616 0.549,0.41 0.984,1.064 1.306,1.962" /><path
         inkscape:connector-curvature="0"
         id="path859"
         style="fill:#231f20;fill-opacity:1;fill-rule:nonzero;stroke:none"
         d="m 205.1,-9.942 h 2.109 V -27.176 H 205.1 Z" /><path
         inkscape:connector-curvature="0"
         id="path861"
         style="fill:#231f20;fill-opacity:1;fill-rule:nonzero;stroke:none"
         d="m 212.07,-19.739 h 6.969 c -0.094,1.052 -0.361,1.842 -0.799,2.368 -0.674,0.817 -1.547,1.225 -2.62,1.225 -0.972,0 -1.789,-0.326 -2.451,-0.978 -0.662,-0.651 -1.028,-1.523 -1.099,-2.615 m 6.946,-3.407 2.187,-0.281 c -0.345,-1.277 -0.983,-2.268 -1.915,-2.973 -0.932,-0.705 -2.122,-1.058 -3.571,-1.058 -1.824,0 -3.271,0.562 -4.341,1.687 -1.068,1.124 -1.603,2.701 -1.603,4.731 0,2.1 0.541,3.729 1.622,4.889 1.08,1.16 2.482,1.74 4.205,1.74 1.668,0 3.03,-0.568 4.088,-1.704 1.057,-1.136 1.585,-2.735 1.585,-4.794 0,-0.126 -0.003,-0.315 -0.011,-0.565 h -9.317 c 0.079,-1.373 0.467,-2.425 1.165,-3.155 0.698,-0.729 1.568,-1.095 2.612,-1.095 0.776,0 1.439,0.205 1.987,0.616 0.549,0.41 0.985,1.064 1.307,1.962" /><path
         inkscape:connector-curvature="0"
         id="path863"
         style="fill:#231f20;fill-opacity:1;fill-rule:nonzero;stroke:none"
         d="m 231.826,-20.911 c -0.767,-0.314 -1.918,-0.58 -3.452,-0.799 -0.869,-0.126 -1.483,-0.268 -1.843,-0.424 -0.361,-0.156 -0.638,-0.386 -0.834,-0.687 -0.196,-0.302 -0.293,-0.637 -0.293,-1.006 0,-0.565 0.213,-1.034 0.638,-1.41 0.426,-0.377 1.049,-0.565 1.87,-0.565 0.812,0 1.535,0.178 2.168,0.535 0.632,0.357 1.097,0.844 1.394,1.463 0.227,0.479 0.34,1.184 0.34,2.117 z m 0.172,-4.719 c -0.787,-0.668 -1.541,-1.141 -2.264,-1.415 -0.723,-0.275 -1.498,-0.413 -2.326,-0.413 -1.367,0 -2.418,0.335 -3.153,1.005 -0.734,0.67 -1.101,1.526 -1.101,2.567 0,0.612 0.138,1.17 0.416,1.675 0.277,0.506 0.64,0.911 1.09,1.217 0.449,0.306 0.955,0.536 1.517,0.693 0.414,0.11 1.039,0.216 1.875,0.318 1.703,0.203 2.957,0.446 3.762,0.728 0.008,0.29 0.012,0.475 0.012,0.553 0,0.863 -0.2,1.471 -0.598,1.823 -0.54,0.479 -1.341,0.718 -2.404,0.718 -0.993,0 -1.726,-0.175 -2.199,-0.524 -0.473,-0.348 -0.823,-0.965 -1.049,-1.851 l -2.063,0.281 c 0.188,0.886 0.497,1.601 0.928,2.146 0.431,0.544 1.053,0.963 1.867,1.256 0.815,0.295 1.758,0.442 2.831,0.442 1.065,0 1.93,-0.125 2.596,-0.376 0.665,-0.251 1.155,-0.567 1.468,-0.946 0.313,-0.38 0.532,-0.861 0.658,-1.44 0.07,-0.361 0.105,-1.012 0.105,-1.951 v -2.822 c 0,-1.967 0.045,-3.211 0.136,-3.733 0.09,-0.52 0.269,-1.019 0.536,-1.498 h -2.203 c -0.227,0.442 -0.373,0.957 -0.437,1.547" /><path
         inkscape:connector-curvature="0"
         id="path865"
         style="fill:#231f20;fill-opacity:1;fill-rule:nonzero;stroke:none"
         d="m 236.394,-23.442 2.093,0.328 c 0.118,-0.842 0.446,-1.489 0.983,-1.937 0.538,-0.448 1.289,-0.673 2.254,-0.673 0.974,0 1.695,0.199 2.166,0.595 0.471,0.397 0.707,0.861 0.707,1.396 0,0.479 -0.207,0.855 -0.621,1.13 -0.289,0.189 -1.01,0.428 -2.163,0.719 -1.554,0.392 -2.631,0.731 -3.23,1.016 -0.601,0.286 -1.056,0.681 -1.366,1.187 -0.309,0.505 -0.464,1.063 -0.464,1.674 0,0.557 0.127,1.071 0.382,1.545 0.255,0.475 0.602,0.868 1.04,1.182 0.329,0.242 0.779,0.448 1.347,0.616 0.568,0.169 1.178,0.253 1.828,0.253 0.98,0 1.84,-0.141 2.581,-0.423 0.74,-0.282 1.287,-0.664 1.64,-1.145 0.352,-0.482 0.596,-1.125 0.729,-1.932 l -2.063,-0.281 c -0.094,0.642 -0.366,1.144 -0.818,1.505 -0.451,0.361 -1.088,0.541 -1.912,0.541 -0.973,0 -1.668,-0.161 -2.084,-0.483 -0.416,-0.321 -0.623,-0.698 -0.623,-1.13 0,-0.275 0.086,-0.523 0.259,-0.742 0.172,-0.228 0.443,-0.417 0.812,-0.566 0.212,-0.079 0.836,-0.259 1.871,-0.541 1.499,-0.401 2.543,-0.728 3.133,-0.982 0.59,-0.255 1.053,-0.625 1.389,-1.11 0.336,-0.487 0.505,-1.089 0.505,-1.81 0,-0.705 -0.206,-1.369 -0.618,-1.992 -0.412,-0.622 -1.006,-1.104 -1.782,-1.445 -0.777,-0.341 -1.655,-0.511 -2.635,-0.511 -1.623,0 -2.86,0.338 -3.711,1.013 -0.852,0.674 -1.395,1.675 -1.629,3.003" /><path
         inkscape:connector-curvature="0"
         id="path867"
         style="fill:#231f20;fill-opacity:1;fill-rule:nonzero;stroke:none"
         d="m 250.861,-19.739 h 6.969 c -0.094,1.052 -0.361,1.842 -0.799,2.368 -0.674,0.817 -1.548,1.225 -2.621,1.225 -0.972,0 -1.788,-0.326 -2.451,-0.978 -0.662,-0.651 -1.028,-1.523 -1.098,-2.615 m 6.945,-3.407 2.188,-0.281 c -0.345,-1.277 -0.984,-2.268 -1.915,-2.973 -0.932,-0.705 -2.122,-1.058 -3.572,-1.058 -1.824,0 -3.271,0.562 -4.34,1.687 -1.069,1.124 -1.603,2.701 -1.603,4.731 0,2.1 0.54,3.729 1.621,4.889 1.08,1.16 2.482,1.74 4.205,1.74 1.668,0 3.031,-0.568 4.088,-1.704 1.057,-1.136 1.586,-2.735 1.586,-4.794 0,-0.126 -0.004,-0.315 -0.012,-0.565 h -9.316 c 0.078,-1.373 0.467,-2.425 1.164,-3.155 0.698,-0.729 1.569,-1.095 2.612,-1.095 0.777,0 1.439,0.205 1.988,0.616 0.549,0.41 0.984,1.064 1.306,1.962" /><path
         inkscape:connector-curvature="0"
         id="path869"
         style="fill:#231f20;fill-opacity:1;fill-rule:nonzero;stroke:none"
         d="m 264.053,-20.948 c 0,-1.6 0.337,-2.795 1.01,-3.588 0.674,-0.791 1.469,-1.188 2.385,-1.188 0.924,0 1.709,0.378 2.355,1.135 0.646,0.757 0.969,1.911 0.969,3.464 0,1.71 -0.329,2.964 -0.987,3.765 -0.658,0.798 -1.468,1.199 -2.431,1.199 -0.94,0 -1.725,-0.385 -2.355,-1.152 -0.63,-0.77 -0.946,-1.981 -0.946,-3.635 m 6.688,-6.229 v 1.571 c -0.791,-1.235 -1.954,-1.852 -3.49,-1.852 -0.995,0 -1.91,0.274 -2.744,0.822 -0.834,0.549 -1.48,1.315 -1.938,2.299 -0.458,0.983 -0.688,2.113 -0.688,3.391 0,1.246 0.208,2.376 0.623,3.39 0.415,1.015 1.038,1.793 1.869,2.334 0.83,0.54 1.757,0.811 2.785,0.811 0.752,0 1.422,-0.158 2.009,-0.476 0.586,-0.317 1.065,-0.73 1.433,-1.239 v 6.184 h 2.109 v -17.235 z" /><path
         inkscape:connector-curvature="0"
         id="path871"
         style="fill:#231f20;fill-opacity:1;fill-rule:nonzero;stroke:none"
         d="m 282.728,-14.692 h 2.109 v -12.484 h -2.109 z m 0,4.75 h 2.109 v -2.438 h -2.109 z" /><path
         inkscape:connector-curvature="0"
         id="path873"
         style="fill:#231f20;fill-opacity:1;fill-rule:nonzero;stroke:none"
         d="m 288.073,-27.177 v 12.485 h 1.89 v -1.775 c 0.916,1.37 2.24,2.056 3.971,2.056 0.751,0 1.442,-0.135 2.073,-0.405 0.63,-0.271 1.102,-0.625 1.415,-1.065 0.314,-0.438 0.533,-0.96 0.659,-1.563 0.078,-0.392 0.117,-1.077 0.117,-2.057 v -7.676 h -2.11 v 7.598 c 0,0.862 -0.082,1.507 -0.247,1.934 -0.164,0.427 -0.455,0.769 -0.874,1.023 -0.419,0.256 -0.91,0.383 -1.473,0.383 -0.901,0 -1.678,-0.286 -2.331,-0.859 -0.654,-0.572 -0.981,-1.658 -0.981,-3.257 v -6.822 z" /><path
         inkscape:connector-curvature="0"
         id="path875"
         style="fill:#231f20;fill-opacity:1;fill-rule:nonzero;stroke:none"
         d="m 310.043,-21.007 c 0,-1.607 0.326,-2.796 0.975,-3.564 0.649,-0.769 1.436,-1.153 2.359,-1.153 0.939,0 1.744,0.399 2.413,1.194 0.668,0.797 1.003,2.029 1.003,3.699 0,1.592 -0.327,2.783 -0.98,3.576 -0.653,0.791 -1.435,1.188 -2.342,1.188 -0.899,0 -1.696,-0.422 -2.388,-1.265 -0.693,-0.843 -1.04,-2.067 -1.04,-3.675 m -1.906,-10.951 v 17.266 h 1.922 v -1.622 c 0.454,0.633 0.968,1.11 1.539,1.427 0.571,0.318 1.265,0.476 2.08,0.476 1.066,0 2.005,-0.275 2.82,-0.822 0.814,-0.549 1.429,-1.324 1.844,-2.323 0.415,-0.999 0.623,-2.093 0.623,-3.285 0,-1.277 -0.229,-2.427 -0.687,-3.449 -0.458,-1.023 -1.124,-1.807 -1.997,-2.352 -0.874,-0.544 -1.793,-0.816 -2.756,-0.816 -0.705,0 -1.338,0.148 -1.898,0.445 -0.56,0.297 -1.02,0.672 -1.38,1.125 v -6.07 z" /><path
         inkscape:connector-curvature="0"
         id="path877"
         style="fill:#231f20;fill-opacity:1;fill-rule:nonzero;stroke:none"
         d="m 329.674,-27.177 v 1.841 c -0.968,-1.415 -2.285,-2.122 -3.949,-2.122 -0.734,0 -1.42,0.141 -2.057,0.423 -0.636,0.282 -1.109,0.637 -1.418,1.064 -0.308,0.427 -0.525,0.95 -0.65,1.57 -0.086,0.415 -0.129,1.073 -0.129,1.974 v 7.735 h 2.11 v -6.92 c 0,-1.105 0.043,-1.848 0.128,-2.233 0.133,-0.555 0.415,-0.992 0.845,-1.309 0.43,-0.318 0.961,-0.476 1.595,-0.476 0.633,0 1.227,0.162 1.782,0.487 0.555,0.326 0.947,0.768 1.179,1.328 0.23,0.56 0.346,1.373 0.346,2.438 v 6.685 h 2.108 v -12.485 z" /><path
         inkscape:connector-curvature="0"
         id="path879"
         style="fill:#231f20;fill-opacity:1;fill-rule:nonzero;stroke:none"
         d="m 336.804,-20.841 c 0,-1.498 0.204,-2.58 0.612,-3.247 0.667,-1.091 1.569,-1.636 2.708,-1.636 0.926,0 1.727,0.403 2.401,1.206 0.675,0.804 1.013,2.002 1.013,3.595 0,1.632 -0.324,2.836 -0.972,3.612 -0.647,0.777 -1.43,1.165 -2.348,1.165 -0.926,0 -1.727,-0.402 -2.402,-1.206 -0.674,-0.803 -1.012,-1.966 -1.012,-3.489 m 0.031,-6.336 h -1.953 v 17.235 h 2.109 v -6.145 c 0.895,1.117 2.035,1.676 3.424,1.676 0.769,0 1.496,-0.154 2.183,-0.465 0.686,-0.309 1.251,-0.744 1.694,-1.305 0.443,-0.559 0.791,-1.235 1.041,-2.027 0.252,-0.791 0.377,-1.638 0.377,-2.539 0,-2.139 -0.529,-3.792 -1.589,-4.96 -1.059,-1.167 -2.331,-1.751 -3.813,-1.751 -1.476,0 -2.633,0.613 -3.473,1.84 z" /><path
         inkscape:connector-curvature="0"
         id="path881"
         style="fill:#231f20;fill-opacity:1;fill-rule:nonzero;stroke:none"
         d="m 348.231,-9.942 h 2.109 v -17.234 h -2.109 z" /><path
         inkscape:connector-curvature="0"
         id="path883"
         style="fill:#231f20;fill-opacity:1;fill-rule:nonzero;stroke:none"
         d="m 353.623,-14.692 h 2.109 v -12.484 h -2.109 z m 0,4.75 h 2.109 v -2.438 h -2.109 z" /><path
         inkscape:connector-curvature="0"
         id="path885"
         style="fill:#231f20;fill-opacity:1;fill-rule:nonzero;stroke:none"
         d="m 367.109,-22.599 2.079,-0.281 c -0.228,-1.432 -0.81,-2.553 -1.747,-3.363 -0.936,-0.811 -2.087,-1.215 -3.45,-1.215 -1.709,0 -3.082,0.559 -4.121,1.675 -1.039,1.116 -1.557,2.717 -1.557,4.802 0,1.347 0.223,2.527 0.669,3.537 0.447,1.011 1.126,1.769 2.039,2.275 0.914,0.505 1.907,0.758 2.98,0.758 1.355,0 2.465,-0.344 3.326,-1.029 0.861,-0.687 1.414,-1.662 1.657,-2.924 l -2.062,-0.313 c -0.196,0.84 -0.542,1.472 -1.04,1.896 -0.497,0.424 -1.098,0.635 -1.803,0.635 -1.065,0 -1.931,-0.382 -2.596,-1.147 -0.666,-0.765 -0.999,-1.975 -0.999,-3.63 0,-1.679 0.322,-2.898 0.965,-3.659 0.644,-0.761 1.483,-1.142 2.519,-1.142 0.831,0 1.525,0.256 2.082,0.767 0.557,0.511 0.91,1.297 1.059,2.358" /><path
         inkscape:connector-curvature="0"
         id="path887"
         style="fill:#231f20;fill-opacity:1;fill-rule:nonzero;stroke:none"
         d="m 379.073,-20.948 c 0,-1.6 0.337,-2.795 1.01,-3.588 0.674,-0.791 1.469,-1.188 2.385,-1.188 0.924,0 1.709,0.378 2.355,1.135 0.646,0.757 0.969,1.911 0.969,3.464 0,1.71 -0.329,2.964 -0.986,3.765 -0.659,0.798 -1.469,1.199 -2.432,1.199 -0.939,0 -1.725,-0.385 -2.355,-1.152 -0.63,-0.77 -0.946,-1.981 -0.946,-3.635 m 6.688,-6.229 v 1.571 c -0.791,-1.235 -1.955,-1.852 -3.49,-1.852 -0.995,0 -1.91,0.274 -2.744,0.822 -0.834,0.549 -1.48,1.315 -1.938,2.299 -0.459,0.983 -0.688,2.113 -0.688,3.391 0,1.246 0.207,2.376 0.623,3.39 0.415,1.015 1.038,1.793 1.869,2.334 0.83,0.54 1.758,0.811 2.784,0.811 0.752,0 1.422,-0.158 2.01,-0.476 0.587,-0.317 1.065,-0.73 1.433,-1.239 v 6.184 h 2.109 v -17.235 z" /><path
         inkscape:connector-curvature="0"
         id="path889"
         style="fill:#231f20;fill-opacity:1;fill-rule:nonzero;stroke:none"
         d="m 392.438,-20.937 c 0,-1.599 0.348,-2.796 1.045,-3.593 0.698,-0.795 1.575,-1.194 2.632,-1.194 1.05,0 1.923,0.401 2.62,1.2 0.698,0.8 1.046,2.019 1.046,3.658 0,1.545 -0.35,2.715 -1.052,3.512 -0.701,0.794 -1.572,1.193 -2.614,1.193 -1.057,0 -1.934,-0.397 -2.632,-1.188 -0.697,-0.793 -1.045,-1.988 -1.045,-3.588 m -2.172,0.002 c 0,2.312 0.641,4.024 1.926,5.137 1.073,0.924 2.38,1.387 3.923,1.387 1.715,0 3.116,-0.563 4.205,-1.687 1.089,-1.125 1.633,-2.678 1.633,-4.661 0,-1.605 -0.241,-2.869 -0.723,-3.79 -0.481,-0.921 -1.182,-1.636 -2.102,-2.145 -0.92,-0.509 -1.924,-0.764 -3.013,-0.764 -1.746,0 -3.158,0.561 -4.234,1.681 -1.077,1.12 -1.615,2.735 -1.615,4.842" /><path
         inkscape:connector-curvature="0"
         id="path891"
         style="fill:#231f20;fill-opacity:1;fill-rule:nonzero;stroke:none"
         d="m 404.436,-27.177 v 12.485 h 1.89 v -1.747 c 0.392,0.609 0.911,1.1 1.561,1.471 0.649,0.371 1.387,0.557 2.217,0.557 0.922,0 1.679,-0.192 2.27,-0.574 0.59,-0.384 1.007,-0.919 1.249,-1.607 0.988,1.454 2.275,2.181 3.859,2.181 1.24,0 2.193,-0.343 2.86,-1.028 0.667,-0.687 1,-1.743 1,-3.168 v -8.57 h -2.11 v 7.868 c 0,0.847 -0.068,1.456 -0.206,1.83 -0.136,0.372 -0.385,0.671 -0.746,0.899 -0.361,0.227 -0.785,0.341 -1.27,0.341 -0.879,0 -1.609,-0.292 -2.189,-0.876 -0.58,-0.585 -0.87,-1.52 -0.87,-2.806 v -7.256 h -2.109 v 8.115 c 0,0.941 -0.172,1.647 -0.517,2.117 -0.345,0.47 -0.908,0.706 -1.691,0.706 -0.595,0 -1.145,-0.157 -1.651,-0.471 -0.504,-0.313 -0.871,-0.772 -1.097,-1.376 -0.227,-0.603 -0.341,-1.474 -0.341,-2.61 v -6.481 z" /><path
         inkscape:connector-curvature="0"
         id="path893"
         style="fill:#231f20;fill-opacity:1;fill-rule:nonzero;stroke:none"
         d="m 432.438,-20.911 c -0.767,-0.314 -1.918,-0.58 -3.453,-0.799 -0.868,-0.126 -1.482,-0.268 -1.842,-0.424 -0.361,-0.156 -0.638,-0.386 -0.833,-0.687 -0.197,-0.302 -0.294,-0.637 -0.294,-1.006 0,-0.565 0.213,-1.034 0.638,-1.41 0.426,-0.377 1.049,-0.565 1.869,-0.565 0.813,0 1.536,0.178 2.168,0.535 0.633,0.357 1.098,0.844 1.395,1.463 0.227,0.479 0.34,1.184 0.34,2.117 z m 0.171,-4.719 c -0.786,-0.668 -1.541,-1.141 -2.263,-1.415 -0.723,-0.275 -1.498,-0.413 -2.326,-0.413 -1.368,0 -2.418,0.335 -3.153,1.005 -0.734,0.67 -1.101,1.526 -1.101,2.567 0,0.612 0.138,1.17 0.416,1.675 0.277,0.506 0.64,0.911 1.089,1.217 0.45,0.306 0.956,0.536 1.518,0.693 0.414,0.11 1.039,0.216 1.875,0.318 1.703,0.203 2.957,0.446 3.762,0.728 0.008,0.29 0.012,0.475 0.012,0.553 0,0.863 -0.2,1.471 -0.599,1.823 -0.539,0.479 -1.34,0.718 -2.403,0.718 -0.994,0 -1.726,-0.175 -2.199,-0.524 -0.473,-0.348 -0.823,-0.965 -1.049,-1.851 l -2.063,0.281 c 0.188,0.886 0.497,1.601 0.928,2.146 0.43,0.544 1.052,0.963 1.867,1.256 0.814,0.295 1.759,0.442 2.831,0.442 1.064,0 1.93,-0.125 2.596,-0.376 0.665,-0.251 1.154,-0.567 1.467,-0.946 0.314,-0.38 0.533,-0.861 0.659,-1.44 0.07,-0.361 0.105,-1.012 0.105,-1.951 v -2.822 c 0,-1.967 0.045,-3.211 0.136,-3.733 0.09,-0.52 0.268,-1.019 0.536,-1.498 h -2.203 c -0.228,0.442 -0.373,0.957 -0.438,1.547" /><path
         inkscape:connector-curvature="0"
         id="path895"
         style="fill:#231f20;fill-opacity:1;fill-rule:nonzero;stroke:none"
         d="m 437.865,-14.692 h 2.109 v -12.484 h -2.109 z m 0,4.75 h 2.109 v -2.438 h -2.109 z" /><path
         inkscape:connector-curvature="0"
         id="path897"
         style="fill:#231f20;fill-opacity:1;fill-rule:nonzero;stroke:none"
         d="m 443.21,-27.177 v 12.485 h 1.891 v -1.775 c 0.916,1.37 2.239,2.056 3.97,2.056 0.752,0 1.443,-0.135 2.074,-0.405 0.629,-0.271 1.101,-0.625 1.415,-1.065 0.313,-0.438 0.532,-0.96 0.658,-1.563 0.078,-0.392 0.117,-1.077 0.117,-2.057 v -7.676 h -2.109 v 7.598 c 0,0.862 -0.082,1.507 -0.247,1.934 -0.165,0.427 -0.457,0.769 -0.875,1.023 -0.418,0.256 -0.91,0.383 -1.473,0.383 -0.901,0 -1.678,-0.286 -2.331,-0.859 -0.654,-0.572 -0.981,-1.658 -0.981,-3.257 v -6.822 z" /><path
         inkscape:connector-curvature="0"
         id="path899"
         style="fill:#231f20;fill-opacity:1;fill-rule:nonzero;stroke:none"
         d="m 465.181,-20.841 c 0,-1.498 0.204,-2.58 0.612,-3.247 0.667,-1.091 1.569,-1.636 2.708,-1.636 0.926,0 1.727,0.403 2.401,1.206 0.675,0.804 1.013,2.002 1.013,3.595 0,1.632 -0.324,2.836 -0.972,3.612 -0.647,0.777 -1.43,1.165 -2.348,1.165 -0.926,0 -1.727,-0.402 -2.402,-1.206 -0.674,-0.803 -1.012,-1.966 -1.012,-3.489 m 0.031,-6.336 h -1.953 v 17.235 h 2.109 v -6.145 c 0.895,1.117 2.035,1.676 3.424,1.676 0.769,0 1.496,-0.154 2.183,-0.465 0.686,-0.309 1.251,-0.744 1.694,-1.305 0.443,-0.559 0.791,-1.235 1.041,-2.027 0.252,-0.791 0.377,-1.638 0.377,-2.539 0,-2.139 -0.529,-3.792 -1.589,-4.96 -1.06,-1.167 -2.331,-1.751 -3.813,-1.751 -1.476,0 -2.633,0.613 -3.473,1.84 z" /><path
         inkscape:connector-curvature="0"
         id="path901"
         style="fill:#231f20;fill-opacity:1;fill-rule:nonzero;stroke:none"
         d="m 476.562,-31.979 -0.235,1.99 c 0.461,-0.125 0.864,-0.188 1.208,-0.188 0.47,0 0.845,0.078 1.126,0.235 0.281,0.157 0.513,0.377 0.693,0.658 0.132,0.212 0.347,0.736 0.645,1.574 0.039,0.118 0.102,0.29 0.188,0.518 l -4.75,12.5 h 2.28 l 2.602,-7.198 c 0.338,-0.912 0.64,-1.872 0.908,-2.879 0.244,0.941 0.535,1.873 0.873,2.797 l 2.665,7.28 h 2.114 l -4.733,-12.704 c -0.51,-1.369 -0.906,-2.31 -1.188,-2.827 -0.376,-0.695 -0.807,-1.205 -1.293,-1.53 -0.486,-0.324 -1.066,-0.486 -1.74,-0.486 -0.407,0 -0.862,0.086 -1.363,0.26" /><path
         inkscape:connector-curvature="0"
         id="path903"
         style="fill:#231f20;fill-opacity:1;fill-rule:nonzero;stroke:none"
         d="m 495.744,-27.177 v 17.235 h 11.625 v -2.032 h -9.344 v -5.343 h 8.094 v -2.032 h -8.094 v -7.828 z" /><path
         inkscape:connector-curvature="0"
         id="path905"
         style="fill:#231f20;fill-opacity:1;fill-rule:nonzero;stroke:none"
         d="m 510.034,-27.177 v 12.485 h 1.891 v -1.895 c 0.487,0.886 0.936,1.471 1.349,1.752 0.413,0.283 0.866,0.424 1.362,0.424 0.715,0 1.441,-0.228 2.179,-0.682 l -0.74,-1.957 c -0.515,0.301 -1.032,0.451 -1.549,0.451 -0.461,0 -0.875,-0.138 -1.243,-0.417 -0.367,-0.278 -0.63,-0.664 -0.786,-1.158 -0.236,-0.752 -0.353,-1.575 -0.353,-2.468 v -6.535 z" /><path
         inkscape:connector-curvature="0"
         id="path907"
         style="fill:#231f20;fill-opacity:1;fill-rule:nonzero;stroke:none"
         d="m 519.655,-19.739 h 6.969 c -0.094,1.052 -0.36,1.842 -0.799,2.368 -0.674,0.817 -1.548,1.225 -2.621,1.225 -0.972,0 -1.788,-0.326 -2.45,-0.978 -0.662,-0.651 -1.028,-1.523 -1.099,-2.615 m 6.946,-3.407 2.187,-0.281 c -0.345,-1.277 -0.983,-2.268 -1.915,-2.973 -0.932,-0.705 -2.122,-1.058 -3.571,-1.058 -1.824,0 -3.272,0.562 -4.34,1.687 -1.069,1.124 -1.604,2.701 -1.604,4.731 0,2.1 0.54,3.729 1.621,4.889 1.081,1.16 2.483,1.74 4.206,1.74 1.668,0 3.031,-0.568 4.087,-1.704 1.057,-1.136 1.586,-2.735 1.586,-4.794 0,-0.126 -0.004,-0.315 -0.011,-0.565 h -9.317 c 0.078,-1.373 0.467,-2.425 1.164,-3.155 0.699,-0.729 1.57,-1.095 2.613,-1.095 0.776,0 1.438,0.205 1.988,0.616 0.549,0.41 0.983,1.064 1.306,1.962" /><path
         inkscape:connector-curvature="0"
         id="path909"
         style="fill:#231f20;fill-opacity:1;fill-rule:nonzero;stroke:none"
         d="m 533.035,-19.739 h 6.969 c -0.095,1.052 -0.36,1.842 -0.799,2.368 -0.674,0.817 -1.548,1.225 -2.621,1.225 -0.972,0 -1.788,-0.326 -2.45,-0.978 -0.662,-0.651 -1.029,-1.523 -1.099,-2.615 m 6.945,-3.407 2.188,-0.281 c -0.345,-1.277 -0.983,-2.268 -1.915,-2.973 -0.932,-0.705 -2.122,-1.058 -3.57,-1.058 -1.826,0 -3.273,0.562 -4.341,1.687 -1.07,1.124 -1.604,2.701 -1.604,4.731 0,2.1 0.54,3.729 1.621,4.889 1.081,1.16 2.483,1.74 4.205,1.74 1.668,0 3.031,-0.568 4.088,-1.704 1.058,-1.136 1.586,-2.735 1.586,-4.794 0,-0.126 -0.004,-0.315 -0.011,-0.565 h -9.317 c 0.078,-1.373 0.467,-2.425 1.165,-3.155 0.697,-0.729 1.569,-1.095 2.612,-1.095 0.776,0 1.439,0.205 1.988,0.616 0.549,0.41 0.984,1.064 1.305,1.962" /><path
         inkscape:connector-curvature="0"
         id="path911"
         style="fill:#231f20;fill-opacity:1;fill-rule:nonzero;stroke:none"
         d="m 544.338,-21.646 2.156,0.188 c 0.102,-0.864 0.338,-1.574 0.709,-2.128 0.371,-0.554 0.948,-1.002 1.73,-1.344 0.781,-0.341 1.661,-0.512 2.637,-0.512 0.868,0 1.634,0.129 2.298,0.388 0.664,0.26 1.158,0.616 1.484,1.068 0.324,0.451 0.486,0.944 0.486,1.476 0,0.541 -0.156,1.013 -0.468,1.417 -0.311,0.404 -0.828,0.742 -1.549,1.017 -0.462,0.18 -1.484,0.461 -3.066,0.842 -1.583,0.38 -2.692,0.739 -3.328,1.077 -0.824,0.431 -1.438,0.967 -1.842,1.607 -0.404,0.639 -0.606,1.356 -0.606,2.149 0,0.871 0.247,1.685 0.741,2.442 0.493,0.757 1.215,1.332 2.163,1.725 0.948,0.392 2.003,0.588 3.163,0.588 1.278,0 2.404,-0.205 3.381,-0.616 0.976,-0.411 1.726,-1.015 2.252,-1.813 0.525,-0.798 0.807,-1.701 0.846,-2.711 l -2.187,-0.172 c -0.118,1.087 -0.515,1.908 -1.192,2.464 -0.678,0.556 -1.68,0.833 -3.003,0.833 -1.38,0 -2.384,-0.253 -3.015,-0.759 -0.631,-0.507 -0.946,-1.116 -0.946,-1.83 0,-0.62 0.223,-1.13 0.67,-1.53 0.438,-0.401 1.585,-0.811 3.437,-1.23 1.853,-0.42 3.124,-0.786 3.814,-1.099 1.002,-0.462 1.743,-1.048 2.221,-1.757 0.478,-0.709 0.717,-1.526 0.717,-2.449 0,-0.917 -0.263,-1.781 -0.787,-2.591 -0.525,-0.812 -1.277,-1.442 -2.26,-1.892 -0.982,-0.45 -2.089,-0.676 -3.317,-0.676 -1.558,0 -2.864,0.228 -3.916,0.682 -1.053,0.454 -1.879,1.138 -2.478,2.051 -0.598,0.912 -0.914,1.944 -0.945,3.095" /><path
         inkscape:connector-curvature="0"
         id="path913"
         style="fill:#231f20;fill-opacity:1;fill-rule:nonzero;stroke:none"
         d="m 566.063,-27.177 -6.666,17.235 h 2.472 l 4.478,-12.516 c 0.36,-1.003 0.662,-1.943 0.905,-2.82 0.267,0.939 0.576,1.88 0.929,2.82 l 4.657,12.516 h 2.331 l -6.748,-17.235 z" /><path
         inkscape:connector-curvature="0"
         id="path915"
         style="fill:#231f20;fill-opacity:1;fill-rule:nonzero;stroke:none"
         d="m 585.26,-20.427 v 2.031 h 7.297 v -6.388 c -1.12,-0.893 -2.277,-1.565 -3.468,-2.014 -1.191,-0.451 -2.413,-0.676 -3.666,-0.676 -1.694,0 -3.231,0.363 -4.613,1.088 -1.384,0.725 -2.428,1.774 -3.133,3.146 -0.705,1.372 -1.058,2.905 -1.058,4.598 0,1.678 0.351,3.244 1.052,4.698 0.701,1.455 1.71,2.535 3.026,3.24 1.317,0.706 2.833,1.058 4.549,1.058 1.245,0 2.372,-0.202 3.379,-0.606 1.007,-0.404 1.796,-0.968 2.368,-1.689 0.572,-0.722 1.007,-1.664 1.305,-2.827 l -2.058,-0.563 c -0.259,0.878 -0.58,1.568 -0.965,2.071 -0.383,0.503 -0.932,0.906 -1.645,1.208 -0.714,0.302 -1.506,0.453 -2.376,0.453 -1.042,0 -1.944,-0.158 -2.704,-0.476 -0.761,-0.317 -1.375,-0.735 -1.841,-1.252 -0.466,-0.517 -0.829,-1.085 -1.088,-1.704 -0.438,-1.066 -0.658,-2.222 -0.658,-3.468 0,-1.536 0.265,-2.821 0.794,-3.855 0.529,-1.036 1.299,-1.803 2.31,-2.305 1.011,-0.501 2.085,-0.752 3.222,-0.752 0.988,0 1.952,0.189 2.894,0.568 0.94,0.38 1.653,0.784 2.139,1.215 v 3.201 z" /><path
         inkscape:connector-curvature="0"
         id="path917"
         style="fill:#231f20;fill-opacity:1;fill-rule:nonzero;stroke:none"
         d="m 596.239,-24.771 h 2.406 v -2.406 h -2.406 z" /><path
         inkscape:connector-curvature="0"
         id="path919"
         style="fill:#231f20;fill-opacity:1;fill-rule:nonzero;stroke:none"
         d="m 603.705,-20.937 c 0,-1.599 0.349,-2.796 1.046,-3.593 0.697,-0.795 1.574,-1.194 2.632,-1.194 1.05,0 1.923,0.401 2.62,1.2 0.697,0.8 1.046,2.019 1.046,3.658 0,1.545 -0.351,2.715 -1.052,3.512 -0.701,0.794 -1.572,1.193 -2.614,1.193 -1.058,0 -1.935,-0.397 -2.632,-1.188 -0.697,-0.793 -1.046,-1.988 -1.046,-3.588 m -2.172,0.002 c 0,2.312 0.642,4.024 1.927,5.137 1.072,0.924 2.38,1.387 3.923,1.387 1.715,0 3.116,-0.563 4.205,-1.687 1.089,-1.125 1.633,-2.678 1.633,-4.661 0,-1.605 -0.242,-2.869 -0.723,-3.79 -0.481,-0.921 -1.183,-1.636 -2.102,-2.145 -0.92,-0.509 -1.924,-0.764 -3.013,-0.764 -1.746,0 -3.158,0.561 -4.235,1.681 -1.077,1.12 -1.615,2.735 -1.615,4.842" /><path
         inkscape:connector-curvature="0"
         id="path921"
         style="fill:#231f20;fill-opacity:1;fill-rule:nonzero;stroke:none"
         d="m 615.679,-27.177 v 12.485 h 1.89 v -1.895 c 0.488,0.886 0.937,1.471 1.35,1.752 0.412,0.283 0.865,0.424 1.361,0.424 0.715,0 1.442,-0.228 2.18,-0.682 l -0.74,-1.957 c -0.516,0.301 -1.032,0.451 -1.549,0.451 -0.461,0 -0.875,-0.138 -1.243,-0.417 -0.367,-0.278 -0.63,-0.664 -0.786,-1.158 -0.237,-0.752 -0.354,-1.575 -0.354,-2.468 v -6.535 z" /><path
         inkscape:connector-curvature="0"
         id="path923"
         style="fill:#231f20;fill-opacity:1;fill-rule:nonzero;stroke:none"
         d="m 625.077,-20.712 c 0,-1.639 0.325,-2.834 0.975,-3.586 0.649,-0.753 1.463,-1.129 2.441,-1.129 0.971,0 1.784,0.374 2.442,1.123 0.658,0.748 0.986,1.922 0.986,3.522 0,1.528 -0.338,2.68 -1.016,3.457 -0.676,0.775 -1.492,1.164 -2.447,1.164 -0.939,0 -1.737,-0.383 -2.395,-1.147 -0.657,-0.764 -0.986,-1.899 -0.986,-3.404 m -1.75,-7.496 2.063,-0.313 c 0.086,-0.632 0.325,-1.093 0.715,-1.382 0.525,-0.391 1.241,-0.586 2.148,-0.586 0.977,0 1.732,0.196 2.265,0.588 0.531,0.392 0.891,0.941 1.079,1.647 0.109,0.432 0.16,1.337 0.152,2.718 -0.924,-1.094 -2.074,-1.641 -3.453,-1.641 -1.715,0 -3.042,0.619 -3.982,1.858 -0.939,1.238 -1.409,2.722 -1.409,4.455 0,1.191 0.216,2.29 0.647,3.297 0.43,1.006 1.055,1.785 1.874,2.333 0.818,0.548 1.78,0.823 2.884,0.823 1.472,0 2.687,-0.594 3.642,-1.781 v 1.5 h 1.953 v -10.789 c 0,-1.944 -0.197,-3.321 -0.593,-4.131 -0.396,-0.811 -1.023,-1.451 -1.88,-1.922 -0.859,-0.47 -1.914,-0.705 -3.168,-0.705 -1.489,0 -2.692,0.335 -3.609,1.005 -0.917,0.67 -1.359,1.678 -1.328,3.026" /></g><g
       id="g1071"><path
         inkscape:connector-curvature="0"
         id="path925"
         style="fill:#000000;fill-opacity:1;fill-rule:nonzero;stroke:none"
         d="m 575.752,457.75 c -4.62,-6.771 -10.422,-12.749 -17.127,-17.477 -6.697,-4.725 -14.297,-8.217 -22.323,-9.98 -8.013,-1.712 -16.476,-1.749 -24.406,0.498 -3.958,1.105 -7.783,2.713 -11.307,4.834 -3.508,2.145 -6.751,4.698 -9.627,7.637 -0.275,0.288 -0.545,0.581 -0.815,0.877 -1.119,1.22 -2.177,2.499 -3.121,3.864 -1.209,1.667 -2.22,3.473 -3.09,5.339 -0.142,0.308 -0.27,0.623 -0.4,0.937 -1.454,3.491 -2.276,7.285 -2.057,11.085 0.161,4.145 1.648,8.181 4.004,11.563 1.214,1.671 2.622,3.186 4.165,4.547 0.811,0.629 1.577,1.323 2.447,1.872 l 1.276,0.861 1.33,0.769 c 3.575,2.024 7.449,3.396 11.45,4.313 2.054,0.339 4.154,0.108 6.121,-0.466 1.98,-0.556 3.833,-1.498 5.516,-2.659 1.656,-1.199 3.165,-2.64 4.264,-4.374 1.131,-1.708 1.808,-3.719 1.907,-5.764 0.052,-2.047 -0.471,-4.091 -1.443,-5.88 -0.969,-1.795 -2.291,-3.372 -3.757,-4.774 1.447,1.421 2.747,3.013 3.687,4.812 0.945,1.79 1.432,3.819 1.353,5.835 -0.122,2.012 -0.814,3.976 -1.946,5.64 -1.102,1.691 -2.604,3.088 -4.247,4.244 -1.668,1.118 -3.501,2.02 -5.441,2.538 -1.931,0.537 -3.974,0.729 -5.931,0.38 -3.892,-0.948 -7.747,-2.366 -11.217,-4.398 -1.764,-0.974 -3.375,-2.188 -4.918,-3.468 -1.495,-1.34 -2.851,-2.823 -4.016,-4.449 -2.257,-3.293 -3.657,-7.186 -3.783,-11.181 -0.2,-3.99 0.78,-7.984 2.463,-11.601 0.284,-0.598 0.59,-1.185 0.906,-1.768 0.641,-1.177 1.342,-2.32 2.138,-3.399 0.316,-0.453 0.65,-0.893 0.991,-1.328 0.895,-1.142 1.867,-2.226 2.882,-3.268 2.824,-2.848 6.031,-5.333 9.468,-7.4 3.453,-2.047 7.182,-3.617 11.049,-4.682 7.741,-2.174 16.01,-2.121 23.852,-0.425 7.851,1.743 15.297,5.186 21.855,9.837 6.567,4.654 12.249,10.535 16.769,17.195 4.536,6.647 7.959,14.071 9.895,21.887 1.942,7.805 2.419,15.99 1.193,23.939 -1.24,7.932 -4.244,15.631 -9.036,22.08 -2.398,3.218 -5.216,6.116 -8.37,8.599 -0.67,0.524 -1.363,1.022 -2.061,1.513 -2.59,1.821 -5.354,3.426 -8.189,4.83 -3.609,1.784 -7.429,3.139 -11.367,3.922 -2.632,0.509 -5.33,0.718 -7.997,0.547 -1.319,-0.086 -2.632,-0.256 -3.923,-0.542 -3.875,-0.913 -7.549,-2.829 -10.313,-5.728 -1.399,-1.423 -2.621,-3.029 -3.597,-4.781 -0.539,-0.848 -0.919,-1.783 -1.375,-2.678 -0.35,-0.941 -0.791,-1.848 -1.072,-2.817 -1.279,-3.82 -1.942,-7.839 -2.201,-11.874 -0.171,-1.984 0.474,-3.953 1.434,-5.703 0.968,-1.758 2.27,-3.328 3.764,-4.676 1.504,-1.336 3.212,-2.463 5.083,-3.214 0.931,-0.391 1.912,-0.64 2.901,-0.831 0.996,-0.133 2.008,-0.216 3.011,-0.098 2.016,0.176 3.94,1 5.574,2.183 1.641,1.194 2.97,2.776 4.084,4.468 -1.092,-1.707 -2.4,-3.309 -4.036,-4.532 -1.63,-1.212 -3.562,-2.073 -5.604,-2.277 -1.018,-0.135 -2.046,-0.063 -3.061,0.058 -1.006,0.181 -2.007,0.421 -2.956,0.806 -1.911,0.738 -3.662,1.86 -5.208,3.196 -1.537,1.352 -2.886,2.931 -3.901,4.722 -1.007,1.777 -1.714,3.828 -1.563,5.925 0.206,4.069 0.821,8.142 2.073,12.049 0.271,0.989 0.715,1.92 1.067,2.883 0.459,0.919 0.84,1.877 1.387,2.752 0.987,1.804 2.233,3.471 3.669,4.953 2.837,3.019 6.644,5.045 10.653,6.017 1.098,0.253 2.211,0.424 3.329,0.533 2.985,0.292 6.011,0.103 8.949,-0.442 4.039,-0.771 7.947,-2.129 11.634,-3.915 3.246,-1.582 6.362,-3.398 9.29,-5.522 0.398,-0.289 0.805,-0.563 1.194,-0.864 3.245,-2.527 6.139,-5.497 8.604,-8.788 4.929,-6.598 8.018,-14.471 9.307,-22.568 1.271,-8.116 0.8,-16.466 -1.157,-24.427 -1.956,-7.968 -5.422,-15.544 -10.029,-22.321 m -98.419,-29.542 c -1.744,-1.108 -4.462,-0.633 -7.475,1.298 -0.135,0.201 -0.249,0.558 -0.295,0.877 0.093,0 0.2,-0.005 0.321,-0.013 3.237,-0.226 6.052,2.212 6.281,5.453 0.229,3.24 -2.212,6.053 -5.452,6.281 -7.042,0.498 -10.964,-3.531 -12.291,-7.468 -0.132,-0.394 -0.244,-0.795 -0.336,-1.199 -2.586,2.607 -6.354,3.744 -10.54,3.04 -3.204,-0.542 -5.36,-3.577 -4.82,-6.78 0.542,-3.204 3.577,-5.361 6.781,-4.82 0.097,0.018 0.181,0.028 0.254,0.035 0.053,-0.308 0.052,-0.717 -0.013,-1.012 -1.744,-1.349 -4.616,-3.104 -6.862,-2.226 -1.538,0.6 -2.909,2.367 -3.875,4.841 0.186,2.574 -0.267,5.153 -1.31,7.507 0.471,8.411 8.249,15.905 18.674,17.39 1.229,0.175 2.453,0.261 3.661,0.261 4.472,0 8.734,-1.182 12.277,-3.446 4.221,-2.697 6.893,-6.624 7.524,-11.06 0.585,-4.103 -0.398,-7.62 -2.504,-8.959 m -81.193,-29.165 -9.762,-14.416 -10.204,-15.068 -9.76,-14.417 -27.625,-40.797 -2.368,3.496 26.745,39.499 9.761,14.417 10.204,15.069 9.763,14.416 10.202,15.07 11.646,17.201 c 0.609,0.897 1.828,1.132 2.724,0.524 0.896,-0.607 1.131,-1.827 0.524,-2.723 L 406.343,414.113 Z M 513.99,46.222 c 0.608,-0.896 0.374,-2.115 -0.524,-2.722 -0.335,-0.228 -0.718,-0.337 -1.096,-0.337 -0.63,0 -1.247,0.302 -1.627,0.861 l -210.658,311.118 -9.763,14.417 -10.204,15.068 -9.762,14.417 -10.203,15.069 -11.645,17.201 c -0.608,0.896 -0.373,2.116 0.523,2.723 0.896,0.607 2.116,0.372 2.723,-0.524 l 11.647,-17.201 10.204,-15.07 9.761,-14.416 10.204,-15.069 9.761,-14.417 z M 155.754,44.024 c -0.38,-0.559 -0.997,-0.861 -1.626,-0.861 -0.378,0 -0.761,0.109 -1.097,0.337 -0.897,0.607 -1.132,1.826 -0.525,2.722 l 164.973,243.644 2.368,-3.497 z m 52.657,389.413 c -0.093,0.404 -0.203,0.805 -0.336,1.199 -1.326,3.936 -5.255,7.965 -12.29,7.468 -3.241,-0.228 -5.682,-3.041 -5.454,-6.281 0.23,-3.241 3.042,-5.682 6.282,-5.453 0.12,0.008 0.226,0.012 0.32,0.013 -0.046,-0.319 -0.159,-0.676 -0.294,-0.876 -3.015,-1.933 -5.733,-2.406 -7.475,-1.299 -2.107,1.339 -3.089,4.856 -2.505,8.959 1.354,9.505 11.878,15.891 23.464,14.245 10.423,-1.485 18.203,-8.98 18.671,-17.392 -1.041,-2.353 -1.494,-4.931 -1.308,-7.503 -0.966,-2.474 -2.336,-4.243 -3.875,-4.843 -2.246,-0.878 -5.118,0.877 -6.862,2.226 -0.064,0.295 -0.067,0.704 -0.013,1.012 0.074,-0.007 0.158,-0.017 0.255,-0.035 3.203,-0.541 6.237,1.616 6.78,4.82 0.541,3.203 -1.617,6.238 -4.819,6.78 -4.182,0.704 -7.955,-0.433 -10.541,-3.04 m -25.849,19.905 c -0.872,-1.866 -1.884,-3.672 -3.091,-5.339 -0.939,-1.357 -1.991,-2.629 -3.103,-3.844 -0.275,-0.302 -0.551,-0.602 -0.834,-0.897 -2.875,-2.939 -6.119,-5.492 -9.626,-7.637 -3.524,-2.121 -7.35,-3.729 -11.308,-4.834 -7.931,-2.247 -16.392,-2.21 -24.405,-0.498 -8.027,1.763 -15.626,5.255 -22.323,9.98 -6.705,4.728 -12.507,10.706 -17.127,17.477 -4.608,6.777 -8.073,14.353 -10.03,22.321 -1.957,7.961 -2.427,16.311 -1.156,24.427 1.287,8.097 4.378,15.97 9.307,22.568 2.465,3.291 5.359,6.261 8.603,8.788 0.389,0.301 0.796,0.575 1.194,0.864 2.928,2.124 6.045,3.94 9.291,5.522 3.686,1.786 7.594,3.144 11.633,3.915 2.938,0.545 5.964,0.734 8.95,0.442 1.117,-0.109 2.23,-0.28 3.329,-0.533 4.008,-0.972 7.815,-2.998 10.653,-6.017 1.435,-1.482 2.682,-3.149 3.669,-4.953 0.546,-0.875 0.928,-1.833 1.387,-2.752 0.351,-0.963 0.796,-1.894 1.066,-2.883 1.252,-3.907 1.867,-7.98 2.073,-12.049 0.152,-2.097 -0.556,-4.148 -1.562,-5.925 -1.017,-1.791 -2.364,-3.37 -3.901,-4.722 -1.547,-1.336 -3.297,-2.458 -5.208,-3.196 -0.95,-0.385 -1.95,-0.625 -2.957,-0.806 -1.015,-0.121 -2.043,-0.193 -3.061,-0.058 -2.041,0.204 -3.975,1.065 -5.603,2.277 -1.636,1.223 -2.944,2.825 -4.037,4.532 1.115,-1.692 2.443,-3.274 4.084,-4.468 1.635,-1.183 3.56,-2.007 5.573,-2.183 1.004,-0.118 2.017,-0.035 3.013,0.098 0.989,0.191 1.97,0.44 2.9,0.831 1.871,0.751 3.581,1.878 5.084,3.214 1.494,1.348 2.796,2.918 3.763,4.676 0.96,1.75 1.606,3.719 1.434,5.703 -0.258,4.035 -0.921,8.054 -2.201,11.874 -0.28,0.969 -0.721,1.876 -1.072,2.817 -0.456,0.895 -0.836,1.83 -1.375,2.678 -0.975,1.752 -2.198,3.358 -3.596,4.781 -2.765,2.899 -6.439,4.815 -10.314,5.728 -1.291,0.286 -2.603,0.456 -3.922,0.542 -2.668,0.171 -5.366,-0.038 -7.998,-0.547 -3.938,-0.783 -7.758,-2.138 -11.367,-3.922 -2.835,-1.404 -5.599,-3.009 -8.188,-4.83 -0.7,-0.491 -1.391,-0.989 -2.062,-1.513 -3.153,-2.483 -5.972,-5.381 -8.369,-8.599 -4.792,-6.449 -7.797,-14.148 -9.037,-22.08 -1.225,-7.949 -0.747,-16.134 1.193,-23.939 1.937,-7.816 5.359,-15.24 9.895,-21.887 4.52,-6.66 10.202,-12.541 16.769,-17.195 6.559,-4.651 14.004,-8.094 21.857,-9.837 7.84,-1.696 16.109,-1.749 23.85,0.425 3.867,1.065 7.597,2.635 11.049,4.682 3.437,2.067 6.644,4.552 9.469,7.4 1.043,1.071 2.042,2.186 2.961,3.364 0.314,0.404 0.618,0.814 0.912,1.232 0.756,1.025 1.425,2.107 2.038,3.221 0.353,0.639 0.692,1.287 1.006,1.946 1.683,3.617 2.663,7.611 2.462,11.601 -0.125,3.995 -1.527,7.888 -3.782,11.181 -1.165,1.626 -2.522,3.109 -4.016,4.449 -1.543,1.28 -3.154,2.494 -4.918,3.468 -3.47,2.032 -7.324,3.45 -11.218,4.398 -1.957,0.349 -4,0.157 -5.929,-0.38 -1.942,-0.518 -3.774,-1.42 -5.443,-2.538 -1.642,-1.156 -3.145,-2.553 -4.246,-4.244 -1.133,-1.664 -1.824,-3.628 -1.946,-5.64 -0.079,-2.016 0.408,-4.045 1.353,-5.835 0.94,-1.799 2.239,-3.391 3.686,-4.812 -1.465,1.402 -2.788,2.979 -3.756,4.774 -0.973,1.789 -1.495,3.833 -1.443,5.88 0.097,2.045 0.776,4.056 1.906,5.764 1.098,1.734 2.608,3.175 4.264,4.374 1.684,1.161 3.536,2.103 5.516,2.659 1.968,0.574 4.067,0.805 6.121,0.466 4.001,-0.917 7.875,-2.289 11.45,-4.313 l 1.331,-0.769 1.277,-0.861 c 0.868,-0.549 1.634,-1.243 2.446,-1.872 1.542,-1.361 2.95,-2.876 4.164,-4.547 2.357,-3.382 3.843,-7.418 4.004,-11.563 0.221,-3.83 -0.615,-7.656 -2.092,-11.167 -0.119,-0.286 -0.235,-0.573 -0.363,-0.855 m -89.05,178.043 c 0.651,3.378 2.578,6.302 5.427,8.23 2.207,1.495 4.718,2.211 7.203,2.211 4.133,0 8.197,-1.982 10.684,-5.655 1.929,-2.849 2.634,-6.278 1.984,-9.656 -0.652,-3.379 -2.579,-6.303 -5.428,-8.231 -2.848,-1.931 -6.278,-2.634 -9.656,-1.984 -3.379,0.652 -6.302,2.579 -8.231,5.428 -1.929,2.849 -2.633,6.277 -1.983,9.657 m 50.416,-53.565 c 5.147,-1.99 10.499,-2.988 15.761,-2.988 0.499,0 0.998,0.012 1.496,0.03 -0.661,-3.079 -0.877,-6.183 -0.625,-9.274 0.544,-6.67 3.958,-18.622 19.983,-27.815 -4.252,-0.176 -8.383,-1.523 -11.995,-3.97 -4.605,-3.116 -7.731,-7.611 -9.208,-12.565 -2.126,19.753 -12.45,27.804 -18.655,30.893 -2.034,1.012 -4.168,1.791 -6.383,2.345 3.37,6.063 5.225,13.081 5.311,20.421 0.019,1.68 -0.064,3.344 -0.227,4.987 1.456,-0.76 2.967,-1.455 4.542,-2.064 m 25.539,-6.296 c 0.637,4.094 2.281,7.965 4.474,11.434 2.216,3.464 4.928,6.59 7.956,9.35 3.037,2.755 6.275,5.266 9.822,7.364 3.551,2.073 7.385,3.658 11.354,4.724 7.956,2.126 16.414,2.074 24.41,0.262 8.008,-1.833 15.587,-5.368 22.252,-10.143 6.672,-4.775 12.42,-10.805 17.002,-17.599 4.572,-6.805 7.967,-14.412 9.867,-22.392 1.901,-7.972 2.322,-16.327 0.978,-24.433 -1.385,-8.075 -4.493,-15.946 -9.522,-22.475 -2.497,-3.266 -5.411,-6.221 -8.688,-8.705 -3.294,-2.46 -6.869,-4.525 -10.666,-6.103 -1.905,-0.77 -3.855,-1.437 -5.863,-1.895 -1.996,-0.502 -4.048,-0.771 -6.106,-0.888 -4.106,-0.196 -8.317,0.424 -12.073,2.183 -3.789,1.69 -6.985,4.569 -9.25,8.012 -1.101,1.747 -1.984,3.617 -2.676,5.555 -0.282,0.987 -0.642,1.955 -0.83,2.966 l -0.325,1.505 -0.219,1.522 c -0.553,4.071 -0.388,8.177 0.245,12.232 0.448,2.034 1.442,3.897 2.706,5.511 1.251,1.633 2.814,3.002 4.518,4.134 1.728,1.093 3.625,1.959 5.644,2.335 2.006,0.415 4.124,0.299 6.059,-0.371 1.922,-0.711 3.626,-1.954 4.924,-3.521 1.308,-1.567 2.28,-3.379 3.038,-5.261 -0.782,1.872 -1.777,3.669 -3.099,5.209 -1.311,1.543 -3.015,2.748 -4.915,3.423 -1.914,0.634 -3.993,0.722 -5.96,0.288 -1.978,-0.395 -3.834,-1.272 -5.517,-2.368 -1.659,-1.133 -3.176,-2.499 -4.377,-4.11 -1.216,-1.593 -2.152,-3.418 -2.554,-5.366 -0.566,-3.966 -0.68,-8.07 -0.083,-12.048 0.25,-2 0.779,-3.947 1.395,-5.855 0.688,-1.884 1.562,-3.694 2.639,-5.379 2.22,-3.318 5.316,-6.065 8.978,-7.664 3.631,-1.668 7.703,-2.241 11.686,-2.021 1.994,0.127 3.987,0.402 5.927,0.908 1.952,0.459 3.852,1.123 5.706,1.889 3.693,1.567 7.191,3.621 10.387,6.045 3.183,2.445 6.023,5.326 8.45,8.52 4.892,6.381 7.914,14.078 9.251,21.988 1.295,7.939 0.863,16.13 -1.02,23.947 -1.884,7.826 -5.234,15.284 -9.739,21.954 -4.488,6.679 -10.111,12.615 -16.647,17.314 -6.528,4.7 -13.951,8.183 -21.787,9.997 -7.825,1.793 -16.089,1.861 -23.857,-0.194 -3.877,-1.03 -7.616,-2.573 -11.091,-4.577 -3.464,-2.013 -6.703,-4.483 -9.695,-7.162 -2.996,-2.689 -5.674,-5.732 -7.863,-9.098 -2.166,-3.372 -3.785,-7.119 -4.43,-11.067 -0.592,-3.938 -0.176,-8.059 1.489,-11.703 0.802,-1.827 1.839,-3.559 3.104,-5.115 0.587,-0.814 1.314,-1.514 1.975,-2.269 0.744,-0.675 1.423,-1.422 2.219,-2.042 3.072,-2.606 6.557,-4.714 10.207,-6.453 1.778,-0.896 3.847,-1.027 5.828,-0.786 1.992,0.245 3.933,0.871 5.74,1.758 1.798,0.901 3.479,2.069 4.871,3.528 0.709,0.718 1.304,1.536 1.848,2.384 0.493,0.875 0.947,1.785 1.21,2.761 0.585,1.935 0.533,4.027 0.042,5.985 -0.499,1.968 -1.474,3.786 -2.632,5.45 1.179,-1.648 2.181,-3.457 2.71,-5.43 0.52,-1.963 0.601,-4.078 0.034,-6.05 -0.255,-0.993 -0.702,-1.923 -1.191,-2.818 -0.542,-0.869 -1.137,-1.709 -1.847,-2.447 -1.394,-1.501 -3.086,-2.709 -4.901,-3.649 -1.826,-0.925 -3.792,-1.59 -5.834,-1.869 -2.021,-0.275 -4.189,-0.171 -6.081,0.749 -3.701,1.702 -7.255,3.786 -10.417,6.397 -0.819,0.619 -1.518,1.378 -2.282,2.062 -0.682,0.767 -1.43,1.478 -2.041,2.31 -1.307,1.587 -2.392,3.363 -3.234,5.246 -1.751,3.756 -2.218,8.043 -1.633,12.125 m 63.44,-104.684 c 1.962,8.053 7.474,14.109 13.836,16.152 0.138,0.04 0.277,0.081 0.414,0.123 1.396,0.407 2.827,0.633 4.271,0.633 1.136,0 2.281,-0.133 3.418,-0.411 4.028,-0.981 6.927,-3.199 7.389,-5.652 0.381,-2.029 -1.068,-4.376 -3.98,-6.458 -0.236,-0.05 -0.61,-0.024 -0.923,0.052 0.034,0.086 0.077,0.184 0.129,0.293 1.416,2.924 0.193,6.441 -2.729,7.857 -2.925,1.414 -6.442,0.193 -7.857,-2.732 -3.077,-6.35 -0.792,-11.491 2.371,-14.184 0.316,-0.27 0.647,-0.522 0.989,-0.757 -3.381,-1.434 -5.84,-4.51 -6.737,-8.659 -0.687,-3.175 1.331,-6.305 4.505,-6.992 3.176,-0.685 6.307,1.332 6.992,4.507 0.021,0.096 0.043,0.177 0.063,0.248 0.306,-0.065 0.684,-0.219 0.935,-0.386 0.605,-2.123 1.17,-5.438 -0.481,-7.2 -0.994,-1.061 -2.777,-1.667 -5,-1.783 -2.713,1.447 -5.798,2.072 -8.858,1.789 -7.33,3.744 -11.186,13.544 -8.747,23.56 m -48.921,60.406 c 3.379,-0.651 6.303,-2.578 8.231,-5.427 1.929,-2.849 2.633,-6.278 1.983,-9.656 -0.651,-3.379 -2.578,-6.302 -5.427,-8.23 -2.849,-1.93 -6.277,-2.634 -9.656,-1.983 -3.378,0.65 -6.301,2.578 -8.231,5.426 -1.928,2.849 -2.634,6.279 -1.982,9.656 0.65,3.379 2.577,6.302 5.426,8.231 2.157,1.461 4.647,2.219 7.194,2.219 0.819,0 1.642,-0.078 2.462,-0.236 m 29.638,42.978 c -2.94,4.109 -8.656,5.057 -12.765,2.114 -4.109,-2.941 -5.056,-8.655 -2.116,-12.765 1.997,-2.789 1.328,-3.817 0.968,-4.368 -1.454,-2.228 -5.2,-3.544 -6.621,-3.341 -6.234,2.906 -13.694,7.884 -14.292,15.211 -0.585,7.173 5.458,15.967 15.771,22.95 19.456,13.174 48.131,4.915 63.921,-18.406 7.795,-11.511 11.28,-24.86 9.813,-37.588 -1.406,-12.209 -7.251,-22.366 -16.454,-28.598 -9.038,-6.12 -18.459,-7.582 -24.588,-3.819 -5.422,3.328 -7.722,10.578 -6.48,20.414 0.177,1.396 2.974,4.558 5.802,4.923 0.564,0.074 1.901,0.246 3.429,-3.546 1.89,-4.686 7.22,-6.955 11.906,-5.064 4.687,1.889 6.954,7.221 5.066,11.907 -4.269,10.59 -12.767,16.145 -22.75,14.851 -10.639,-1.377 -20.333,-10.697 -21.607,-20.775 -0.002,-0.012 -0.002,-0.023 -0.003,-0.034 -0.528,1.141 -1.147,2.25 -1.867,3.312 -1.62,2.395 -3.635,4.422 -5.938,6.027 6.82,0.44 14.041,3.883 18.69,9.505 6.547,7.916 6.589,18.043 0.115,27.09 M 141.41,458.764 c 3.65,-3.495 9.442,-3.368 12.937,0.281 3.494,3.65 3.368,9.442 -0.282,12.936 -2.954,2.828 -2.299,4 -2.02,4.5 1.39,2.492 5.363,3.918 6.727,3.559 9.593,-2.497 15.471,-7.325 16.549,-13.596 1.219,-7.087 -3.638,-15.292 -12.675,-21.41 -9.205,-6.234 -20.804,-7.889 -32.664,-4.661 -12.363,3.364 -23.464,11.556 -31.258,23.066 -15.792,23.322 -12.811,53.013 6.644,66.187 10.313,6.982 20.721,9.328 27.164,6.123 6.582,-3.276 8.434,-12.051 8.818,-18.917 -0.334,-1.401 -2.951,-4.387 -5.56,-4.909 -0.646,-0.131 -1.849,-0.369 -3.698,2.52 -2.724,4.257 -8.383,5.498 -12.638,2.775 -4.256,-2.723 -5.499,-8.382 -2.775,-12.638 5.997,-9.371 15.417,-13.09 25.196,-9.95 7.873,2.527 14.375,9.16 16.775,16.331 0.513,-3.261 1.726,-6.46 3.696,-9.368 1.237,-1.827 2.705,-3.439 4.352,-4.816 -1.079,0.349 -2.182,0.677 -3.317,0.973 -9.832,2.558 -22.084,-2.982 -27.314,-12.349 -4.902,-8.783 -2.904,-18.741 5.343,-26.637 m 51.945,10.781 c -1.578,9.175 -7.092,16.836 -15.655,22.187 1.302,-0.22 2.605,-0.335 3.9,-0.335 4.589,0 9.073,1.365 12.956,3.995 4.09,2.77 7.123,6.68 8.778,11.235 2.104,-8.931 7.002,-16.094 14.353,-20.607 2.934,-1.803 6.141,-3.067 9.518,-3.835 -2.592,-3.629 -4.583,-7.866 -5.727,-12.56 -0.728,-2.993 -1.061,-5.979 -1.05,-8.895 -2.702,1.094 -5.597,1.894 -8.646,2.329 -6.443,0.917 -12.688,0.107 -18.161,-2.031 0.296,2.845 0.218,5.7 -0.266,8.517 m 205.083,38.071 c -5.031,6.529 -8.14,14.4 -9.524,22.475 -1.344,8.106 -0.922,16.461 0.979,24.433 1.9,7.98 5.295,15.587 9.868,22.392 4.581,6.794 10.329,12.824 17.002,17.599 6.664,4.775 14.243,8.31 22.25,10.143 7.997,1.812 16.455,1.864 24.41,-0.262 3.971,-1.066 7.805,-2.651 11.354,-4.724 3.548,-2.098 6.786,-4.609 9.822,-7.364 3.029,-2.76 5.741,-5.886 7.956,-9.35 2.195,-3.469 3.838,-7.34 4.475,-11.434 0.584,-4.082 0.116,-8.369 -1.634,-12.125 -0.841,-1.883 -1.926,-3.659 -3.235,-5.246 -0.61,-0.832 -1.357,-1.543 -2.04,-2.31 -0.764,-0.684 -1.463,-1.443 -2.282,-2.062 -3.162,-2.611 -6.714,-4.695 -10.417,-6.397 -1.891,-0.92 -4.06,-1.024 -6.08,-0.749 -2.042,0.279 -4.009,0.944 -5.834,1.869 -1.816,0.94 -3.508,2.148 -4.902,3.649 -0.71,0.738 -1.305,1.578 -1.846,2.447 -0.49,0.895 -0.937,1.825 -1.192,2.818 -0.566,1.972 -0.485,4.087 0.036,6.05 0.528,1.973 1.531,3.782 2.709,5.43 -1.158,-1.664 -2.133,-3.482 -2.632,-5.45 -0.493,-1.958 -0.542,-4.05 0.041,-5.985 0.263,-0.976 0.717,-1.886 1.21,-2.761 0.545,-0.848 1.139,-1.666 1.848,-2.384 1.392,-1.459 3.074,-2.627 4.871,-3.528 1.807,-0.887 3.748,-1.513 5.741,-1.758 1.981,-0.241 4.05,-0.11 5.827,0.786 3.65,1.739 7.136,3.847 10.208,6.453 0.795,0.62 1.474,1.367 2.219,2.042 0.661,0.755 1.388,1.455 1.974,2.269 1.265,1.556 2.303,3.288 3.104,5.115 1.666,3.644 2.08,7.765 1.49,11.703 -0.646,3.948 -2.265,7.695 -4.431,11.067 -2.188,3.366 -4.867,6.409 -7.862,9.098 -2.993,2.679 -6.232,5.149 -9.696,7.162 -3.475,2.004 -7.214,3.547 -11.09,4.577 -7.769,2.055 -16.033,1.987 -23.858,0.194 -7.836,-1.814 -15.257,-5.297 -21.786,-9.997 -6.537,-4.699 -12.16,-10.635 -16.647,-17.314 -4.506,-6.67 -7.857,-14.128 -9.74,-21.954 -1.883,-7.817 -2.314,-16.008 -1.018,-23.947 1.337,-7.91 4.357,-15.607 9.25,-21.988 2.426,-3.194 5.268,-6.075 8.45,-8.52 3.195,-2.424 6.693,-4.478 10.387,-6.045 1.855,-0.766 3.754,-1.43 5.705,-1.889 1.94,-0.506 3.934,-0.781 5.928,-0.908 3.982,-0.22 8.055,0.353 11.685,2.021 3.662,1.599 6.758,4.346 8.978,7.664 1.078,1.685 1.952,3.495 2.64,5.379 0.616,1.908 1.145,3.855 1.394,5.855 0.598,3.978 0.483,8.082 -0.082,12.048 -0.402,1.948 -1.339,3.773 -2.554,5.366 -1.201,1.611 -2.719,2.977 -4.379,4.11 -1.682,1.096 -3.537,1.973 -5.516,2.368 -1.965,0.434 -4.045,0.346 -5.96,-0.288 -1.899,-0.675 -3.604,-1.88 -4.915,-3.423 -1.321,-1.54 -2.315,-3.337 -3.099,-5.209 0.758,1.882 1.731,3.694 3.038,5.261 1.3,1.567 3.003,2.81 4.924,3.521 1.935,0.67 4.054,0.786 6.06,0.371 2.018,-0.376 3.918,-1.242 5.644,-2.335 1.703,-1.132 3.266,-2.501 4.519,-4.134 1.263,-1.614 2.256,-3.477 2.705,-5.511 0.633,-4.055 0.798,-8.161 0.245,-12.232 l -0.218,-1.522 -0.327,-1.505 c -0.187,-1.011 -0.547,-1.979 -0.829,-2.966 -0.691,-1.938 -1.576,-3.808 -2.677,-5.555 -2.264,-3.443 -5.461,-6.322 -9.249,-8.012 -3.758,-1.759 -7.969,-2.379 -12.075,-2.183 -2.055,0.117 -4.109,0.386 -6.104,0.888 -2.008,0.458 -3.96,1.125 -5.864,1.895 -3.797,1.578 -7.372,3.643 -10.666,6.103 -3.277,2.484 -6.191,5.439 -8.686,8.705 m 86.534,19.866 c 2.548,0 5.038,-0.759 7.194,-2.219 5.882,-3.982 7.426,-12.006 3.444,-17.887 -1.929,-2.849 -4.85,-4.776 -8.229,-5.426 -3.381,-0.652 -6.809,0.053 -9.658,1.983 -2.848,1.928 -4.776,4.851 -5.425,8.23 -0.651,3.378 0.053,6.807 1.981,9.656 1.929,2.849 4.853,4.777 8.232,5.427 0.82,0.158 1.643,0.236 2.461,0.236 m -60.395,-9.141 c 4.687,-1.89 10.018,0.377 11.907,5.064 1.529,3.792 2.859,3.62 3.429,3.546 2.828,-0.365 5.625,-3.527 5.802,-4.923 1.243,-9.836 -1.058,-17.086 -6.48,-20.414 -6.13,-3.765 -15.548,-2.301 -24.586,3.819 -9.204,6.232 -15.048,16.389 -16.455,28.598 -1.467,12.728 2.017,26.077 9.812,37.588 15.79,23.322 44.466,31.58 63.921,18.406 10.313,-6.983 16.356,-15.777 15.77,-22.95 -0.596,-7.328 -8.056,-12.305 -14.29,-15.211 -1.424,-0.212 -5.168,1.113 -6.621,3.341 -0.358,0.551 -1.029,1.579 0.967,4.368 2.94,4.11 1.993,9.825 -2.115,12.766 -4.11,2.941 -9.825,1.993 -12.766,-2.115 -6.474,-9.047 -6.432,-19.175 0.116,-27.09 4.65,-5.621 11.869,-9.065 18.69,-9.505 -2.303,-1.605 -4.318,-3.632 -5.938,-6.027 -0.72,-1.062 -1.34,-2.172 -1.867,-3.313 -0.002,0.011 -0.002,0.023 -0.004,0.034 -1.274,10.078 -10.967,19.399 -21.606,20.776 -9.979,1.294 -18.48,-4.26 -22.75,-14.851 -1.89,-4.686 0.378,-10.018 5.064,-11.907 m -8.591,-76.85 c -2.223,0.116 -4.007,0.722 -5.002,1.783 -1.65,1.762 -1.086,5.077 -0.481,7.199 0.251,0.168 0.629,0.322 0.935,0.387 0.021,-0.071 0.042,-0.152 0.063,-0.248 0.686,-3.175 3.81,-5.194 6.992,-4.507 3.175,0.687 5.193,3.817 4.505,6.992 -0.895,4.149 -3.354,7.225 -6.737,8.659 0.343,0.235 0.674,0.487 0.99,0.757 3.164,2.693 5.447,7.834 2.371,14.184 -1.415,2.924 -4.932,4.146 -7.856,2.732 -2.924,-1.416 -4.147,-4.933 -2.731,-7.857 0.054,-0.109 0.097,-0.207 0.131,-0.293 -0.312,-0.076 -0.687,-0.104 -0.923,-0.052 -2.913,2.082 -4.362,4.429 -3.981,6.459 0.462,2.452 3.362,4.67 7.389,5.651 2.495,0.607 5.025,0.517 7.448,-0.15 0.226,-0.068 0.454,-0.138 0.681,-0.203 6.352,-2.051 11.85,-8.102 13.809,-16.144 2.439,-10.018 -1.417,-19.816 -8.747,-23.56 -3.057,0.283 -6.144,-0.342 -8.856,-1.789 m 57.157,28.054 c -0.485,-2.807 -0.563,-5.651 -0.272,-8.486 -5.604,2.182 -11.861,2.895 -18.156,2 -3.049,-0.435 -5.944,-1.235 -8.648,-2.33 0.012,2.917 -0.321,5.903 -1.049,8.896 -1.144,4.694 -3.135,8.932 -5.725,12.561 3.376,0.768 6.582,2.031 9.518,3.834 7.349,4.513 12.248,11.676 14.352,20.608 1.655,-4.555 4.687,-8.466 8.777,-11.236 3.884,-2.63 8.368,-3.996 12.956,-3.996 1.296,0 2.6,0.116 3.9,0.336 -8.563,-5.352 -14.076,-13.012 -15.653,-22.187 m 73.899,47.673 c -4.257,2.725 -9.914,1.482 -12.639,-2.775 -1.848,-2.89 -3.051,-2.651 -3.696,-2.52 -2.608,0.522 -5.227,3.507 -5.56,4.908 0.384,6.867 2.235,15.642 8.817,18.918 6.444,3.205 16.851,0.86 27.165,-6.123 19.455,-13.174 22.434,-42.865 6.643,-66.187 -7.793,-11.51 -18.895,-19.702 -31.257,-23.066 -11.861,-3.228 -23.459,-1.572 -32.664,4.661 -9.038,6.118 -13.894,14.322 -12.676,21.41 1.08,6.271 6.957,11.099 16.551,13.596 1.372,0.359 5.336,-1.068 6.725,-3.559 0.279,-0.5 0.934,-1.672 -2.019,-4.5 -3.651,-3.494 -3.776,-9.286 -0.282,-12.936 3.495,-3.651 9.288,-3.775 12.936,-0.281 8.248,7.896 10.246,17.854 5.343,26.637 -5.231,9.368 -17.484,14.907 -27.312,12.349 -1.137,-0.296 -2.238,-0.624 -3.318,-0.973 1.646,1.377 3.114,2.989 4.351,4.816 1.969,2.908 3.184,6.108 3.697,9.368 2.399,-7.17 8.901,-13.804 16.774,-16.331 9.781,-3.139 19.199,0.58 25.196,9.95 2.724,4.256 1.481,9.915 -2.775,12.638 m -41.729,57.644 c 0.497,-0.018 0.995,-0.031 1.494,-0.03 5.262,0 10.614,0.998 15.761,2.988 1.577,0.609 3.085,1.305 4.542,2.064 -0.163,-1.643 -0.246,-3.307 -0.226,-4.987 0.086,-7.34 1.941,-14.358 5.31,-20.421 -2.214,-0.554 -4.348,-1.333 -6.382,-2.345 -6.207,-3.089 -16.53,-11.141 -18.657,-30.894 -1.474,4.955 -4.601,9.45 -9.206,12.566 -3.612,2.446 -7.742,3.794 -11.995,3.971 16.025,9.193 19.439,21.144 19.983,27.814 0.252,3.091 0.036,6.195 -0.624,9.274 m 44.358,61.309 c 2.486,3.673 6.55,5.655 10.683,5.655 2.485,0 4.996,-0.716 7.204,-2.211 2.848,-1.928 4.775,-4.852 5.425,-8.23 0.651,-3.38 -0.052,-6.808 -1.982,-9.657 -1.929,-2.849 -4.852,-4.777 -8.23,-5.428 -3.38,-0.65 -6.806,0.055 -9.657,1.984 -5.881,3.982 -7.426,12.006 -3.443,17.887 m 27.81,-96.221 c 3.337,1.869 5.952,4.393 7.651,7.487 1.994,3.628 4.341,11.322 -2.33,22.088 -2.781,4.488 -9.779,6.695 -15.601,4.918 -5.537,-1.689 -8.702,-6.439 -8.467,-12.705 0.108,-2.846 2.483,-5.076 5.347,-4.959 2.847,0.107 5.066,2.5 4.959,5.346 -0.072,1.933 0.562,2.208 0.902,2.355 1.377,0.596 3.547,0.056 4.153,-0.484 2.029,-3.304 3.992,-7.962 1.997,-11.594 -1.347,-2.453 -4.418,-4.288 -8.495,-5.217 -8.033,4.789 -16.074,7.539 -23.61,8.166 -4.299,5.318 -6.704,12.253 -6.789,19.666 -0.092,7.835 2.416,15.195 7.06,20.726 4.454,5.307 10.356,8.268 16.622,8.34 6.169,0.093 11.036,-2.166 12.75,-5.839 1.516,-3.251 0.346,-7.375 -3.293,-11.615 -0.516,-0.602 -2.814,-1.221 -4.259,-0.514 -0.289,0.143 -0.97,0.474 -0.511,2.734 0.568,2.791 -1.235,5.512 -4.028,6.08 -2.791,0.57 -5.514,-1.237 -6.08,-4.028 -1.281,-6.308 0.995,-11.561 6.088,-14.051 5.432,-2.656 12.886,-1.284 16.615,3.061 6.342,7.387 8.097,15.658 4.816,22.693 -1.635,3.503 -4.421,6.343 -7.978,8.363 1.727,1.411 3.257,3.08 4.541,4.978 3.474,5.13 4.743,11.305 3.571,17.389 -1.172,6.084 -4.641,11.348 -9.772,14.821 -10.592,7.173 -25.042,4.388 -32.21,-6.201 -1.297,-1.915 -2.263,-3.958 -2.921,-6.059 -3.201,2.551 -6.88,4.078 -10.741,4.294 -7.745,0.438 -14.78,-4.265 -19.283,-12.896 -2.65,-5.075 -1.157,-12.507 3.327,-16.564 4.205,-3.804 9.927,-3.966 15.306,-0.435 2.381,1.563 3.045,4.76 1.482,7.141 -1.564,2.382 -4.759,3.044 -7.141,1.482 -1.927,-1.264 -2.487,-0.757 -2.726,-0.54 -1.193,1.08 -1.472,3.441 -1.105,4.145 2.584,4.954 5.973,7.569 9.562,7.37 4.048,-0.227 7.938,-3.933 10.157,-9.67 4.773,-12.353 -3.39,-27.058 -18.196,-32.783 -5.868,-2.267 -12.032,-2.856 -17.756,-1.752 -4.03,7.079 -10.434,13.751 -18.908,19.49 -0.162,0.108 -0.327,0.203 -0.488,0.31 -0.613,4.065 -0.043,7.536 1.711,9.67 2.633,3.201 7.687,3.109 11.506,2.451 0.728,-0.362 2.035,-2.177 1.992,-3.676 -0.01,-0.37 -0.03,-1.061 -1.85,-1.712 -2.683,-0.957 -4.082,-3.908 -3.125,-6.591 0.959,-2.682 3.909,-4.08 6.59,-3.123 5.906,2.108 9.141,6.811 8.654,12.58 -0.512,6.065 -5.159,11.744 -10.361,12.66 -12.467,2.196 -18.743,-2.841 -21.372,-6.038 -2.425,-2.949 -3.825,-6.649 -4.206,-10.825 -26.594,10.179 -59.618,-1.289 -78.385,-29.004 -10.246,-15.132 -14.805,-32.868 -12.837,-49.942 1.903,-16.525 9.659,-30.582 21.941,-39.909 -4.938,-2.847 -8.313,-7.161 -9.255,-12.168 -1.28,-6.801 1.978,-13.497 8.936,-18.369 0.716,-0.503 1.498,-0.912 2.321,-1.23 -2.151,-1.449 -3.806,-3.458 -4.525,-5.75 -0.709,-2.263 -1.08,-4.307 -1.218,-6.17 -2.449,0.643 -5.156,-0.275 -6.652,-2.482 l -6.652,-9.826 c -1.892,-2.794 -1.155,-6.627 1.639,-8.519 l 12.194,-8.257 -10.204,-15.069 -4.141,2.804 c -2.794,1.892 -6.627,1.154 -8.519,-1.64 l -2.883,-4.257 c -1.892,-2.793 -1.153,-6.628 1.641,-8.519 l 4.141,-2.805 -10.204,-15.07 -4.14,2.805 c -2.794,1.892 -6.628,1.153 -8.52,-1.64 l -2.883,-4.257 c -1.89,-2.794 -1.153,-6.628 1.641,-8.519 l 4.142,-2.804 -25.567,-37.759 -25.567,37.759 4.141,2.804 c 2.794,1.891 3.531,5.725 1.64,8.519 l -2.883,4.257 c -1.891,2.793 -5.725,3.532 -8.518,1.64 l -4.141,-2.805 -10.204,15.07 4.14,2.805 c 2.794,1.891 3.533,5.726 1.642,8.519 l -2.883,4.257 c -1.892,2.794 -5.725,3.532 -8.519,1.64 l -4.142,-2.804 -10.203,15.069 12.193,8.257 c 2.794,1.892 3.532,5.725 1.64,8.519 l -6.652,9.826 c -1.495,2.207 -4.203,3.125 -6.653,2.482 -0.139,1.863 -0.507,3.907 -1.217,6.169 -0.72,2.292 -2.375,4.302 -4.525,5.751 0.822,0.318 1.604,0.727 2.32,1.229 6.959,4.873 10.217,11.569 8.938,18.369 -0.942,5.008 -4.317,9.322 -9.258,12.169 12.283,9.327 20.04,23.383 21.943,39.909 1.968,17.074 -2.59,34.81 -12.837,49.942 -18.768,27.715 -51.793,39.181 -78.386,29.004 -0.382,4.176 -1.78,7.876 -4.205,10.825 -2.628,3.197 -8.901,8.231 -21.373,6.038 -5.201,-0.916 -9.848,-6.596 -10.361,-12.66 -0.487,-5.769 2.748,-10.472 8.654,-12.58 2.681,-0.957 5.633,0.441 6.59,3.123 0.958,2.683 -0.44,5.634 -3.123,6.591 -1.821,0.651 -1.841,1.342 -1.852,1.712 -0.043,1.499 1.265,3.315 1.993,3.675 3.818,0.658 8.873,0.751 11.504,-2.449 1.755,-2.135 2.326,-5.606 1.713,-9.671 -0.161,-0.107 -0.328,-0.202 -0.488,-0.31 -8.476,-5.739 -14.879,-12.411 -18.908,-19.489 -5.725,-1.104 -11.889,-0.515 -17.756,1.751 -14.808,5.725 -22.97,20.43 -18.196,32.783 2.218,5.737 6.11,9.443 10.157,9.67 3.58,0.196 6.976,-2.416 9.562,-7.37 0.367,-0.704 0.087,-3.065 -1.105,-4.145 -0.238,-0.217 -0.798,-0.725 -2.727,0.54 -2.381,1.562 -5.579,0.898 -7.14,-1.482 -1.563,-2.381 -0.9,-5.578 1.482,-7.141 5.382,-3.532 11.103,-3.368 15.306,0.435 4.484,4.058 5.976,11.489 3.328,16.564 -4.504,8.631 -11.526,13.344 -19.284,12.896 -3.858,-0.216 -7.533,-1.74 -10.732,-4.287 -0.67,2.121 -1.648,4.158 -2.93,6.052 -7.171,10.591 -21.622,13.371 -32.211,6.201 -5.13,-3.473 -8.6,-8.737 -9.771,-14.821 -1.172,-6.084 0.096,-12.259 3.57,-17.389 1.282,-1.895 2.81,-3.561 4.531,-4.97 -3.552,-2.025 -6.333,-4.871 -7.966,-8.371 -3.282,-7.035 -1.527,-15.306 4.814,-22.693 3.73,-4.345 11.183,-5.718 16.615,-3.061 5.093,2.49 7.369,7.743 6.088,14.051 -0.566,2.791 -3.287,4.592 -6.08,4.028 -2.792,-0.568 -4.594,-3.289 -4.028,-6.08 0.459,-2.26 -0.221,-2.591 -0.511,-2.734 -1.445,-0.705 -3.741,-0.087 -4.258,0.514 -3.64,4.24 -4.809,8.364 -3.293,11.615 1.687,3.616 6.448,5.841 12.466,5.841 0.093,0 0.188,0 0.285,-0.002 6.264,-0.072 12.167,-3.033 16.622,-8.34 4.643,-5.531 7.15,-12.891 7.058,-20.726 -0.084,-7.413 -2.489,-14.347 -6.788,-19.665 -7.538,-0.627 -15.577,-3.378 -23.61,-8.167 -4.078,0.929 -7.148,2.764 -8.495,5.217 -1.995,3.632 -0.032,8.29 1.997,11.594 0.606,0.54 2.777,1.08 4.152,0.484 0.341,-0.147 0.975,-0.422 0.903,-2.355 -0.108,-2.846 2.114,-5.24 4.959,-5.346 2.837,-0.101 5.24,2.113 5.347,4.959 0.235,6.267 -2.93,11.016 -8.469,12.705 -5.822,1.779 -12.818,-0.43 -15.6,-4.919 -6.67,-10.765 -4.322,-18.459 -2.33,-22.087 1.7,-3.094 4.314,-5.618 7.651,-7.487 -22.347,-20.389 -25.214,-57.573 -5.443,-86.77 10.245,-15.133 25.021,-25.952 41.605,-30.464 5.581,-1.519 11.147,-2.27 16.59,-2.27 11.222,0 21.92,3.193 31.139,9.436 0.714,0.483 1.407,0.982 2.088,1.486 0.814,-5.632 3.564,-10.356 7.858,-13.087 5.841,-3.713 13.268,-3.175 20.376,1.478 0.732,0.479 1.402,1.053 2.002,1.699 0.547,-2.535 1.798,-4.817 3.659,-6.337 2.569,-2.097 5.002,-3.45 7.242,-4.283 -0.156,-1.401 0.159,-2.86 1.006,-4.112 l 6.654,-9.826 c 1.892,-2.794 5.726,-3.532 8.519,-1.641 l 9.466,6.41 10.204,-15.069 -1.415,-0.957 c -2.794,-1.893 -3.531,-5.726 -1.64,-8.52 l 2.884,-4.257 c 1.891,-2.794 5.724,-3.531 8.518,-1.64 l 1.414,0.958 10.204,-15.07 -1.415,-0.957 c -2.793,-1.892 -3.531,-5.725 -1.639,-8.519 l 2.883,-4.257 c 1.891,-2.794 5.723,-3.531 8.518,-1.641 l 1.414,0.957 32.601,-48.144 L 148.156,49.17 c -4.857,-7.174 -2.98,-16.925 4.194,-21.782 2.694,-1.825 5.752,-2.7 8.779,-2.7 5.029,0 9.97,2.416 13.002,6.893 l 4.045,5.975 12.414,-8.407 c 2.325,-1.574 5.486,-0.966 7.06,1.36 l 4.449,6.569 5.52,-3.738 c -1.958,-6.225 -0.299,-12.773 4.626,-16.107 6.24,-4.225 15.335,-1.69 20.312,5.663 4.979,7.351 3.955,16.736 -2.286,20.962 -4.923,3.334 -11.618,2.445 -16.672,-1.686 l -5.52,3.738 4.448,6.569 c 1.575,2.326 0.966,5.486 -1.359,7.062 l -12.414,8.404 5.1,7.534 12.415,-8.406 c 2.324,-1.574 5.486,-0.966 7.06,1.36 l 4.448,6.569 5.52,-3.737 c -1.959,-6.227 -0.299,-12.773 4.626,-16.108 6.24,-4.225 15.334,-1.69 20.313,5.661 4.979,7.353 3.954,16.739 -2.286,20.963 -4.925,3.335 -11.617,2.446 -16.673,-1.685 l -5.52,3.738 4.448,6.569 c 1.575,2.326 0.966,5.487 -1.359,7.061 l -12.414,8.406 5.101,7.532 12.414,-8.405 c 2.324,-1.575 5.487,-0.966 7.061,1.359 l 4.449,6.57 5.519,-3.738 c -1.959,-6.226 -0.299,-12.773 4.626,-16.108 6.24,-4.225 15.334,-1.69 20.312,5.662 4.98,7.353 3.955,16.737 -2.285,20.964 -4.925,3.334 -11.62,2.443 -16.673,-1.686 l -5.52,3.738 4.448,6.569 c 1.574,2.324 0.966,5.486 -1.359,7.061 l -12.414,8.405 83.138,122.784 83.137,-122.784 -12.413,-8.405 c -2.326,-1.575 -2.935,-4.737 -1.361,-7.061 l 4.449,-6.569 -5.52,-3.738 c -5.055,4.129 -11.749,5.02 -16.674,1.686 -6.24,-4.227 -7.263,-13.611 -2.285,-20.964 4.979,-7.352 14.073,-9.887 20.313,-5.662 4.925,3.335 6.584,9.882 4.626,16.108 l 5.521,3.738 4.447,-6.57 c 1.574,-2.325 4.736,-2.934 7.061,-1.359 l 12.414,8.405 5.1,-7.532 -12.414,-8.406 c -2.325,-1.574 -2.933,-4.735 -1.359,-7.061 l 4.448,-6.569 -5.52,-3.738 c -5.054,4.131 -11.748,5.02 -16.672,1.685 -6.242,-4.224 -7.265,-13.61 -2.287,-20.963 4.979,-7.351 14.074,-9.886 20.313,-5.661 4.926,3.335 6.584,9.881 4.625,16.108 l 5.523,3.737 4.447,-6.569 c 1.574,-2.326 4.735,-2.934 7.061,-1.36 l 12.414,8.406 5.099,-7.533 -12.414,-8.405 c -2.324,-1.576 -2.933,-4.736 -1.358,-7.062 l 4.447,-6.569 -5.52,-3.738 c -5.054,4.131 -11.748,5.02 -16.671,1.686 -6.243,-4.226 -7.265,-13.611 -2.288,-20.962 4.979,-7.353 14.074,-9.888 20.314,-5.663 4.926,3.334 6.584,9.881 4.625,16.107 l 5.52,3.738 4.45,-6.569 c 1.574,-2.326 4.734,-2.934 7.06,-1.36 l 12.414,8.407 4.046,-5.975 c 3.031,-4.477 7.971,-6.893 13.001,-6.893 3.027,0 6.085,0.875 8.78,2.7 7.172,4.857 9.05,14.608 4.194,21.782 l -166.152,245.383 32.601,48.144 1.413,-0.957 c 2.794,-1.89 6.628,-1.153 8.52,1.641 l 2.881,4.257 c 1.893,2.794 1.155,6.627 -1.638,8.519 l -1.415,0.956 10.205,15.071 1.414,-0.958 c 2.793,-1.891 6.626,-1.154 8.517,1.64 l 2.883,4.257 c 1.891,2.794 1.155,6.627 -1.64,8.52 l -1.414,0.957 10.204,15.069 9.467,-6.41 c 2.792,-1.891 6.626,-1.153 8.518,1.641 l 6.652,9.826 c 0.849,1.252 1.164,2.711 1.008,4.112 2.241,0.833 4.674,2.186 7.241,4.283 1.861,1.52 3.112,3.801 3.66,6.336 0.6,-0.645 1.269,-1.219 2.002,-1.698 7.11,-4.652 14.535,-5.19 20.376,-1.478 4.293,2.731 7.043,7.455 7.858,13.087 0.682,-0.504 1.374,-1.003 2.088,-1.486 9.221,-6.243 19.916,-9.436 31.138,-9.436 5.444,0 11.01,0.751 16.591,2.27 16.583,4.512 31.359,15.331 41.605,30.464 19.77,29.197 16.902,66.381 -5.444,86.77" /></g></g></svg>